<svg width="115" height="30" viewBox="0 0 115 30" fill="none" xmlns="http://www.w3.org/2000/svg">
<path fill-rule="evenodd" clip-rule="evenodd" d="M6.41 18.4L19.05 24.11L17.95 26.05L3.68 23.36L6.41 18.4ZM3.07 24.38L0 29.84H16L17.18 27.29L3.07 24.38ZM16.7 0L24.66 14.32L23.3 16.73L13.71 5.51L16.7 0ZM10.31 11.47L21.5 19.95L22.57 18.04L13.12 6.51L10.31 11.47ZM6.97 17.43L19.74 23.05L20.84 21.03L9.73 12.44L6.98 17.43H6.97Z" fill="#1D1D1D"/>
<path fill-rule="evenodd" clip-rule="evenodd" d="M17.34 29.84L25.38 15.46L33.37 29.84H29.07L25.41 23.25L21.72 29.84H17.34Z" fill="#1D1D1D"/>
<path fill-rule="evenodd" clip-rule="evenodd" d="M57.18 18.41H59.4V24.22L64.4 18.41H66.37V27.57H64.15V21.69L59.06 27.57H57.18V18.41ZM44.29 27.57L49.45 18.41L51.24 18.43L56.38 27.57H53.63L50.26 21.6L46.89 27.57H44.29ZM68.71 18.41H70.89V21.9H75.52V18.39H77.74V27.55H75.52V24.01H70.89V27.57H68.73V18.41H68.71ZM80.08 18.41H82.3V24.22L87.3 18.41H89.27V27.57H87.05V21.69L81.96 27.57H80.08V18.41ZM93.83 18.41V24.22L98.8 18.41H100.75V27.57H98.57V21.67L93.46 27.57H91.6V18.41H93.83Z" fill="#1D1D1D"/>
<path fill-rule="evenodd" clip-rule="evenodd" d="M99.28 3.19H101.52V12.32H99.28V3.19ZM103.9 3.19L114.05 3.21L112.87 5.19H103.9V3.19ZM103.9 6.67H112.06L110.86 8.75H103.9V6.67ZM31.24 10.22L36.39 1.16H38.22L43.37 10.22L44.69 10.24V14.93H42.56V12.29H32.02V14.93H29.89V10.21H31.23L31.24 10.22ZM37.25 4.36L33.92 10.22H40.6L37.25 4.36ZM46.19 3.19H56.31L55.13 5.22H46.19V3.19ZM58.83 3.21L53.68 12.32H56.32L59.69 6.37L63.09 12.32H65.86L60.66 3.19L58.83 3.21ZM46.19 6.67H54.3L53.1 8.75H46.17L46.19 6.67ZM52.29 10.22L51.13 12.3H46.18V10.22H52.29ZM69.56 3.12C71.25 2.77 73.12 2.86 74.62 3.8C76.93 5.27 77.23 8.96 75.36 10.92C74.11 12.13 72.29 12.55 70.6 12.44C69.26 12.35 67.87 11.88 66.97 10.83C65.79 9.45 65.61 7.35 66.3 5.72C66.85 4.34 68.15 3.41 69.56 3.13V3.12ZM69.95 5.22C68.08 5.78 67.71 8.58 69.19 9.77C70.23 10.52 71.66 10.52 72.79 10.03C74.39 9.33 74.59 6.9 73.46 5.71C72.49 4.92 71.1 4.87 69.95 5.22ZM78.5 3.19H84.67C85.39 3.17 86.15 3.38 86.64 3.94C87.31 4.85 87.19 6.37 86.13 6.93C87.98 7.54 88.21 10.15 87.03 11.48C86.34 12.16 85.34 12.3 84.42 12.32H78.48C78.5 9.26 78.5 6.23 78.5 3.19ZM80.67 5.15V6.67C81.85 6.65 83.03 6.72 84.21 6.65C84.97 6.63 85.02 5.18 84.21 5.16C83.03 5.11 81.85 5.16 80.67 5.16V5.15ZM80.67 8.44V10.33C82.01 10.31 83.35 10.4 84.69 10.28C85.66 10.28 85.75 8.58 84.81 8.46C83.45 8.41 82.06 8.46 80.67 8.44ZM91.99 3.19V6.44C93.52 6.51 95.04 6.3 96.54 6.56C97.88 6.82 98.39 8.36 98.25 9.57C98.3 11.04 97 12.28 95.57 12.3C93.65 12.35 91.73 12.3 89.81 12.32V3.19H91.99ZM92.02 8.33V10.34C93.13 10.32 94.24 10.41 95.35 10.29C96.32 10.22 96.3 8.4 95.3 8.38C94.21 8.29 93.1 8.36 92.02 8.33ZM110 10.22L108.84 12.3H103.89V10.22H110Z" fill="#1D1D1D"/>
</svg>
