<svg width="120" height="33" viewBox="0 0 120 33" fill="none" xmlns="http://www.w3.org/2000/svg">
<path d="M10.1891 12.1061V16.8405L16.4509 20.775L31.4291 9.6849C30.9055 8.51752 30.24 7.415 29.4545 6.39895L16.44 16.0406L10.1782 12.1061H10.1891Z" fill="#1D1D1D"/>
<path d="M29.0836 16.5054C29.0836 18.2781 28.7127 20.0292 27.9927 21.6505C27.3164 23.1854 26.3345 24.5581 25.1236 25.7039C24 26.774 22.7018 27.6387 21.2727 28.2332C19.7345 28.8709 18.0982 29.206 16.44 29.1952C16.44 29.1952 16.44 29.1952 16.4291 29.1952C14.6618 29.1952 12.9273 28.8277 11.3127 28.1035C9.79636 27.4225 8.44364 26.4497 7.29818 25.2391C6.21818 24.115 5.35636 22.7963 4.75636 21.3479C4.12364 19.813 3.79636 18.1592 3.79636 16.4946C3.79636 14.7219 4.16727 12.9708 4.88727 11.3495C5.56364 9.82542 6.53455 8.46348 7.73455 7.31772C8.85818 6.23682 10.1673 5.36128 11.6073 4.76679C13.1455 4.12905 14.7818 3.79397 16.44 3.80478C18.9818 3.80478 21.4691 4.57222 23.5636 6.02064L26.76 3.65346C24.0545 1.45922 20.7273 0.205372 17.2582 0.0324271C17.0073 0.010809 16.7564 0 16.5055 0C16.4836 0 16.4509 0 16.4291 0C14.2691 0 12.1309 0.421553 10.1455 1.25385C8.4 1.97805 6.81818 3.01572 5.42182 4.28038H5.41091C5.31273 4.35604 5.23636 4.45332 5.13818 4.5398C5.02909 4.63708 4.92 4.73436 4.81091 4.83164H4.82182C3.39273 6.28005 2.22545 7.94464 1.39636 9.8038C0.589091 11.663 0.141818 13.6626 0.0436364 15.6839H0.0218182C0.0109091 15.9541 0 16.2244 0 16.4946C0 18.6672 0.425455 20.8074 1.25455 22.8071C1.97455 24.5581 3.01091 26.1471 4.26545 27.5522H4.25455C4.34182 27.6603 4.44 27.7468 4.52727 27.8333C4.62545 27.9414 4.71273 28.0495 4.82182 28.1575H4.83273C6.26182 29.5735 7.92 30.7517 9.77455 31.584C11.6291 32.4055 13.6036 32.8595 15.6218 32.9568V32.9784C15.8945 32.9892 16.1564 33 16.4291 33C18.5891 33 20.7273 32.5784 22.7236 31.7462C24.4691 31.0219 26.0509 29.9843 27.4473 28.7196V28.7412C27.5782 28.6331 27.6764 28.5251 27.7855 28.417C27.8727 28.3305 27.9709 28.2548 28.0582 28.1684H28.0473C29.4764 26.7199 30.6436 25.0554 31.4727 23.1962C32.4 21.0884 32.88 18.8077 32.88 16.4946C32.88 15.5002 32.7927 14.5165 32.6182 13.5329L29.0836 16.1487V16.5054Z" fill="#1D1D1D"/>
<path d="M94.8764 9.43629L99.5782 5.99902H83.8364V26.6767H99.5782V23.2394H88.3309V17.943H97.9309V14.4949H88.3309V9.43629H94.8764Z" fill="#1D1D1D"/>
<path d="M76.4946 9.43629L81.1964 5.98821H63.2836V26.6659H72.6545C77.9127 26.6659 80.9345 24.2987 80.9345 20.1697C80.9345 16.0406 78.1964 14.0518 73.2436 14.0518H67.7782V9.43629H76.5055H76.4946ZM72.4582 17.489C75.3055 17.489 76.6364 18.451 76.6364 20.3534C76.6364 22.2558 75.2182 23.2178 72.4582 23.2178H67.7782V17.489H72.4582Z" fill="#1D1D1D"/>
<path d="M111.153 5.99902H102.578V26.6767H107.073V20.8182H111.153C116.618 20.8182 120 17.9646 120 13.4032C120 8.84179 116.618 6.00983 111.153 6.00983V5.99902ZM111.055 17.3701H107.073V9.43629H111.055C113.935 9.43629 115.516 10.8415 115.516 13.4032C115.516 15.965 113.924 17.3701 111.055 17.3701Z" fill="#1D1D1D"/>
<path d="M56.5527 21.791C55.3964 22.4179 54.0873 22.7422 52.7673 22.7314C48.8182 22.7314 45.9491 19.9319 45.9491 16.073C45.9491 12.2142 48.8182 9.41467 52.7673 9.41467C54.1964 9.39306 55.5818 9.81461 56.7491 10.6361L59.8909 8.33377L59.6727 8.18244C57.84 6.58271 55.3964 5.7396 52.5927 5.7396C49.5491 5.7396 46.8 6.75565 44.8255 8.604C43.8327 9.55519 43.0473 10.7009 42.5127 11.9656C41.9782 13.2303 41.7164 14.5922 41.7491 15.965C41.7273 17.3485 41.9891 18.7213 42.5127 20.0075C43.0364 21.2938 43.8218 22.4612 44.8145 23.434C46.7891 25.358 49.5382 26.4173 52.56 26.4173C55.5818 26.4173 58.4727 25.3256 60.3382 23.3367L57.5236 21.2614L56.5527 21.791Z" fill="#1D1D1D"/>
</svg>
