<svg width="104" height="37" viewBox="0 0 104 37" fill="none" xmlns="http://www.w3.org/2000/svg">
<path fill-rule="evenodd" clip-rule="evenodd" d="M26.8276 0H21.3448V5.08022H26.8276V0Z" fill="#1D1D1D"/>
<path fill-rule="evenodd" clip-rule="evenodd" d="M103.989 19.3848V17.3184C103.989 10.3203 99.931 6.80407 93.8161 6.80407H93.7011C84.3218 6.87257 83.3908 14.9324 83.3908 17.4668C83.3908 25.9034 87.8391 28.8602 93.7126 28.9972C93.8851 28.9972 94.0345 29.0315 94.2184 29.0315C96.3563 29.1342 98.4713 28.5177 100.207 27.2848C101.943 26.0518 103.195 24.2709 103.77 22.2388H97.908C97.2874 23.6887 95.8161 24.6134 94.2184 24.5563H93.7126C89.5862 24.2823 89.2644 20.9374 89.2644 19.3848H104H103.989ZM93.7471 11.3363C95.5517 11.3363 97.8391 12.3866 98.1609 15.7658H89.2529C89.5747 13.0145 91.023 11.3363 93.7011 11.3363H93.7471ZM82.1609 0H76.4368V28.5177H82.1609V0ZM66.0919 6.80407C65.5287 6.80407 64.977 6.83832 64.4253 6.90682C63.4138 7.1009 62.4483 7.51188 61.6207 8.11694C60.7931 8.722 60.1034 9.4983 59.6092 10.3888H59.5402V7.39772H54.046V37H59.7586V25.7208L59.8736 25.755C60.3218 26.5998 60.9655 27.3305 61.7586 27.867C62.5517 28.415 63.4713 28.7575 64.4368 28.8831C64.954 28.9744 65.4713 29.0201 65.9885 29.0315C72.4253 29.0315 75.1839 23.506 75.1839 17.7408C75.1839 10.423 70.9195 6.80407 66.0919 6.80407ZM64.4253 24.4536H64.2759C60.5862 24.4536 59.5287 20.5492 59.5287 18.0491C59.5287 14.7041 60.7931 11.5761 64.4138 11.5761C68.3218 11.5761 69.2989 14.9895 69.2989 18.3687C69.2989 21.4625 67.9195 24.3394 64.4138 24.4536H64.4253ZM21.3908 7.39772V28.5063H27.1149V15.4804C27.1149 13.2314 27.9885 11.4391 30.6667 11.4391C33.5632 11.4391 34.1034 13.9735 34.1034 15.7658V28.4949H39.7816V15.8001C39.7816 13.2999 40.8276 11.4391 43.7241 11.4391C45.3563 11.4391 46.8046 12.5008 46.8046 15.6288V28.5063H52.4828V13.8365C52.4828 9.22431 49.2299 6.80407 44.9425 6.80407C43.7701 6.80407 42.6207 7.12373 41.6092 7.70596C40.5977 8.28818 39.7586 9.13298 39.1954 10.1376C38.5517 9.09874 37.6437 8.2311 36.5632 7.64887C35.4828 7.06665 34.2529 6.76982 33.0115 6.79266C31.7701 6.81549 30.5632 7.16939 29.5057 7.8087C28.4483 8.44801 27.5862 9.33848 26.9885 10.4116H26.8851V7.3863H21.3793L21.3908 7.39772ZM19.2529 13.7908C18.8161 7.8087 13.7586 6.79266 9.51724 6.79266C2.74713 6.80407 0.758621 10.7655 0.758621 13.8707C0.758621 21.7822 14.2184 19.1108 14.2184 22.627C14.2184 23.4033 13.5287 24.8417 10.5632 24.8417C6.97701 24.8417 5.86207 23.506 5.86207 21.7137H0C0 27.3419 5.49425 29.0315 10.4253 29.0315C13.8276 29.0315 19.908 27.9469 19.908 21.7822C19.908 13.9735 6.33333 16.4394 6.33333 13.0944C6.33333 12.1811 6.73563 11.0281 9.85057 11.0281C12.9655 11.0281 13.4713 12.4665 13.6897 13.8022H19.2644L19.2529 13.7908Z" fill="#1D1D1D"/>
</svg>
