<svg width="114" height="20" viewBox="0 0 114 20" fill="none" xmlns="http://www.w3.org/2000/svg">
<g clip-path="url(#clip0_302_68307)">
<path d="M1.69672 14.2354C0.565277 13.0898 0 11.6774 0 9.99934C0 8.32122 0.565277 6.9098 1.69672 5.7633C2.82727 4.61768 4.20945 4.04443 5.84238 4.04443C7.4753 4.04443 8.85749 4.61768 9.98804 5.7633C11.1186 6.90892 11.6848 8.32122 11.6848 9.99934V10.7861H2.35946C2.53932 11.7297 2.95131 12.4713 3.59545 13.0109C4.23958 13.5505 4.98915 13.8198 5.84238 13.8198C6.89053 13.8198 7.72959 13.5576 8.35954 13.033C8.64396 12.8231 8.89115 12.5608 9.10114 12.2463H11.5731C11.2586 12.9808 10.8616 13.6028 10.3823 14.1113C9.15341 15.3402 7.64099 15.9542 5.84326 15.9542C4.21034 15.9542 2.82816 15.381 1.6976 14.2354H1.69672ZM2.47198 8.87587H9.21366C9.07899 8.12719 8.72281 7.49014 8.14602 6.96562C7.56922 6.4411 6.80105 6.17884 5.84238 6.17884C5.03345 6.17884 4.314 6.4225 3.68493 6.90892C3.05586 7.39623 2.65095 8.05188 2.47109 8.87498L2.47198 8.87587Z" fill="#9E9E9E"/>
<path d="M12.5859 4.26953H15.0579L17.5299 13.5957H18.9909L21.4629 4.26953H23.9349L20.7887 15.7301H15.7322L12.5859 4.26953Z" fill="#9E9E9E"/>
<path d="M26.5287 14.2354C25.3973 13.0898 24.832 11.6774 24.832 9.99934C24.832 8.32122 25.3973 6.9098 26.5287 5.7633C27.6593 4.61768 29.0415 4.04443 30.6744 4.04443C32.3073 4.04443 33.6895 4.61768 34.8201 5.7633C35.9506 6.90892 36.5168 8.32122 36.5168 9.99934V10.7861H27.1906C27.3705 11.7297 27.7825 12.4713 28.4266 13.0109C29.0707 13.5505 29.8203 13.8198 30.6735 13.8198C31.7217 13.8198 32.5607 13.5576 33.1907 13.033C33.4751 12.8231 33.7223 12.5608 33.9323 12.2463H36.4043C36.0897 12.9808 35.6928 13.6028 35.2135 14.1113C33.9846 15.3402 32.4721 15.9542 30.6744 15.9542C29.0415 15.9542 27.6593 15.381 26.5287 14.2354ZM27.304 8.87587H34.0457C33.911 8.12719 33.5548 7.49014 32.978 6.96562C32.4013 6.4411 31.6331 6.17884 30.6744 6.17884C29.8655 6.17884 29.146 6.4225 28.517 6.90892C27.8879 7.39623 27.483 8.05188 27.3031 8.87498L27.304 8.87587Z" fill="#9E9E9E"/>
<path d="M38.5391 15.7303V4.26975H40.8985V5.95495H41.011C41.1758 5.64041 41.416 5.34094 41.7305 5.05565C42.4189 4.4567 43.2287 4.15723 44.1573 4.15723H45.5058V6.40416H44.0448C43.1304 6.40416 42.3782 6.693 41.7863 7.26891C41.1944 7.8457 40.8985 8.6059 40.8985 9.54951V15.7295H38.5391V15.7303Z" fill="#9E9E9E"/>
<path d="M46.1797 4.26953H48.6517L51.1236 13.4832H52.3596L55.0567 4.26953H57.5286L52.8097 19.9998H50.3378L51.6863 15.7301H49.3268L46.1806 4.26953H46.1797Z" fill="#9E9E9E"/>
<path d="M66.8398 6.40415L68.4426 4.26885H69.7912V1.79688H72.1506V4.26885H75.6335V6.40415H72.1506V13.595H75.7461V15.7294H69.7912V6.40326H66.8398V6.40415Z" fill="#9E9E9E"/>
<path d="M78.7905 14.2354C77.659 13.0898 77.0938 11.6774 77.0938 9.99934C77.0938 8.32122 77.659 6.9098 78.7905 5.7633C79.9219 4.61768 81.3032 4.04443 82.9361 4.04443C84.5691 4.04443 85.9512 4.61768 87.0818 5.7633C88.2132 6.90892 88.7785 8.32122 88.7785 9.99934V10.7861H79.4523C79.6322 11.7297 80.0442 12.4713 80.6883 13.0109C81.3324 13.5505 82.0811 13.8198 82.9352 13.8198C83.9834 13.8198 84.8225 13.5576 85.4524 13.033C85.7368 12.8231 85.984 12.5608 86.194 12.2463H88.666C88.3514 12.9808 87.9545 13.6028 87.4752 14.1113C86.2463 15.3402 84.7339 15.9542 82.9361 15.9542C81.3032 15.9542 79.921 15.381 78.7905 14.2354ZM79.5657 8.87587H86.3074C86.1727 8.12719 85.8166 7.49014 85.2398 6.96562C84.663 6.4411 83.8948 6.17884 82.9361 6.17884C82.1272 6.17884 81.4078 6.4225 80.7787 6.90892C80.1496 7.39623 79.7447 8.05188 79.5648 8.87498L79.5657 8.87587Z" fill="#9E9E9E"/>
<path d="M91.7689 14.27C90.6756 13.1465 90.1289 11.7236 90.1289 10.0003C90.1289 8.27701 90.6756 6.85408 91.7689 5.73061C92.8623 4.60714 94.2258 4.04541 95.8588 4.04541C97.6866 4.04541 99.1769 4.74182 100.33 6.13552C100.825 6.77965 101.17 7.46897 101.364 8.20259H98.8925C98.7879 7.82869 98.593 7.49112 98.3086 7.19165C97.7247 6.51739 96.9078 6.1807 95.8588 6.1807C94.9293 6.1807 94.155 6.53245 93.533 7.23683C92.911 7.94121 92.6 8.86267 92.6 10.0012C92.6 11.1397 92.911 12.0612 93.533 12.7656C94.155 13.4699 94.9293 13.8217 95.8588 13.8217C96.9379 13.8217 97.7841 13.485 98.3981 12.8107C98.6674 12.5113 98.8703 12.1746 99.005 11.7998H101.364C101.17 12.5635 100.825 13.2608 100.33 13.8899C99.1919 15.2686 97.7017 15.957 95.8588 15.957C94.2258 15.957 92.8623 15.3953 91.7689 14.2718V14.27Z" fill="#9E9E9E"/>
<path d="M103.273 15.7303V0H105.633V5.84238H105.745C105.925 5.54291 106.203 5.24343 106.577 4.94396C107.386 4.34501 108.308 4.04466 109.341 4.04466C110.764 4.04466 111.869 4.45665 112.655 5.28064C113.442 6.10464 113.835 7.30342 113.835 8.87609V15.7303H111.475V9.10114C111.475 8.09728 111.254 7.36012 110.813 6.88787C110.37 6.41563 109.693 6.17995 108.779 6.17995C107.866 6.17995 107.113 6.49094 106.521 7.11292C105.929 7.7349 105.633 8.54738 105.633 9.55123V15.7312H103.273V15.7303Z" fill="#9E9E9E"/>
<path d="M66.2853 4.26953H68.7573L64.0384 19.9998H61.5664L66.2853 4.26953Z" fill="#9E9E9E"/>
<path d="M60.6681 4.26953H63.1401L58.4212 19.9998H55.9492L60.6681 4.26953Z" fill="#9E9E9E"/>
</g>
<defs>
<clipPath id="clip0_302_68307">
<rect width="113.836" height="20" fill="white"/>
</clipPath>
</defs>
</svg>
