<svg width="16" height="16" viewBox="0 0 16 16" fill="none" xmlns="http://www.w3.org/2000/svg">
<g clip-path="url(#clip0_302_68286)">
<mask id="path-1-inside-1_302_68286" fill="white">
<path fill-rule="evenodd" clip-rule="evenodd" d="M16 8C16 12.4183 12.4183 16 8 16C3.58172 16 0 12.4183 0 8C0 3.58172 3.58172 0 8 0C12.4183 0 16 3.58172 16 8ZM8.28662 5.90595C7.5085 6.2296 5.95336 6.89946 3.62119 7.91555C3.24249 8.06615 3.0441 8.21348 3.02604 8.35754C2.99552 8.601 3.30041 8.69687 3.71558 8.82742C3.77205 8.84517 3.83057 8.86357 3.89056 8.88307C4.29902 9.01585 4.84848 9.17118 5.13412 9.17735C5.39323 9.18295 5.68242 9.07613 6.00169 8.85689C8.1807 7.386 9.30552 6.64254 9.37614 6.62651C9.42596 6.6152 9.495 6.60099 9.54178 6.64256C9.58855 6.68414 9.58395 6.76288 9.579 6.784C9.5488 6.91276 8.352 8.02541 7.73267 8.6012C7.5396 8.78069 7.40265 8.90801 7.37465 8.93709C7.31193 9.00223 7.24802 9.06385 7.18658 9.12307C6.80711 9.48889 6.52254 9.76321 7.20234 10.2112C7.52902 10.4265 7.79043 10.6045 8.05123 10.7821C8.33604 10.9761 8.62012 11.1695 8.98767 11.4104C9.08132 11.4718 9.17075 11.5356 9.25786 11.5977C9.58931 11.834 9.8871 12.0463 10.255 12.0124C10.4688 11.9928 10.6896 11.7917 10.8017 11.1922C11.0667 9.77543 11.5877 6.70564 11.7081 5.44065C11.7186 5.32982 11.7054 5.18798 11.6947 5.12572C11.684 5.06345 11.6618 4.97474 11.5808 4.90907C11.485 4.83129 11.337 4.81489 11.2708 4.81606C10.9699 4.82136 10.5083 4.98188 8.28662 5.90595Z"/>
</mask>
<path d="M3.62119 7.91555L3.99071 8.84477L4.00576 8.83879L4.02061 8.83232L3.62119 7.91555ZM8.28662 5.90595L7.90258 4.98264L7.90258 4.98264L8.28662 5.90595ZM3.02604 8.35754L4.01828 8.48193L4.01828 8.48193L3.02604 8.35754ZM3.71558 8.82742L3.41562 9.78137L3.41562 9.78137L3.71558 8.82742ZM3.89056 8.88307L3.58142 9.83409L3.58142 9.83409L3.89056 8.88307ZM5.13412 9.17735L5.11252 10.1771L5.11253 10.1771L5.13412 9.17735ZM6.00169 8.85689L5.44219 8.02803L5.43562 8.03254L6.00169 8.85689ZM9.37614 6.62651L9.59747 7.60171L9.59748 7.60171L9.37614 6.62651ZM9.54178 6.64256L10.2061 5.89513L10.2061 5.89512L9.54178 6.64256ZM9.579 6.784L10.5526 7.01237L10.5526 7.01235L9.579 6.784ZM7.73267 8.6012L8.41356 9.33358L8.41356 9.33358L7.73267 8.6012ZM7.37465 8.93709L6.65427 8.24351L6.65427 8.24351L7.37465 8.93709ZM7.18658 9.12307L7.88062 9.84301L7.88062 9.84301L7.18658 9.12307ZM7.20234 10.2112L7.75259 9.37619L7.75259 9.37619L7.20234 10.2112ZM8.05123 10.7821L7.48835 11.6086L7.48836 11.6086L8.05123 10.7821ZM8.98767 11.4104L8.43945 12.2468L8.43945 12.2468L8.98767 11.4104ZM9.25786 11.5977L9.83835 10.7834L9.83835 10.7834L9.25786 11.5977ZM10.255 12.0124L10.3466 13.0082L10.3466 13.0082L10.255 12.0124ZM10.8017 11.1922L11.7847 11.3761L11.7847 11.3761L10.8017 11.1922ZM11.7081 5.44065L10.7126 5.3459L10.7126 5.3459L11.7081 5.44065ZM11.6947 5.12572L10.709 5.2944L10.709 5.29441L11.6947 5.12572ZM11.5808 4.90907L12.2109 4.13255L12.2109 4.13255L11.5808 4.90907ZM11.2708 4.81606L11.2885 5.8159L11.2885 5.8159L11.2708 4.81606ZM8 17C12.9706 17 17 12.9706 17 8H15C15 11.866 11.866 15 8 15V17ZM-1 8C-1 12.9706 3.02944 17 8 17V15C4.13401 15 1 11.866 1 8H-1ZM8 -1C3.02944 -1 -1 3.02944 -1 8H1C1 4.13401 4.13401 1 8 1V-1ZM17 8C17 3.02944 12.9706 -1 8 -1V1C11.866 1 15 4.13401 15 8H17ZM4.02061 8.83232C6.35409 7.81566 7.90155 7.14917 8.67065 6.82927L7.90258 4.98264C7.11544 5.31003 5.55262 5.98327 3.22177 6.99878L4.02061 8.83232ZM4.01828 8.48193C3.99662 8.65464 3.92653 8.77736 3.87617 8.84517C3.82808 8.90991 3.78726 8.93984 3.78459 8.94182C3.77971 8.94544 3.79164 8.93611 3.82971 8.91646C3.86658 8.89742 3.91915 8.87323 3.99071 8.84477L3.25167 6.98633C3.02655 7.07585 2.79148 7.18815 2.59216 7.33617C2.41894 7.46481 2.09409 7.75231 2.03381 8.23315L4.01828 8.48193ZM4.01554 7.87346C3.9067 7.83924 3.83066 7.81516 3.76725 7.79232C3.70167 7.7687 3.68736 7.75949 3.69817 7.76564C3.70456 7.76927 3.80067 7.82244 3.88946 7.95302C3.93723 8.02326 3.97878 8.11013 4.00274 8.21086C4.02661 8.31125 4.02801 8.40429 4.01828 8.48193L2.03381 8.23315C1.9964 8.53157 2.06587 8.82801 2.23558 9.0776C2.38593 9.29871 2.57849 9.42964 2.70918 9.504C2.94789 9.63981 3.24929 9.72907 3.41562 9.78137L4.01554 7.87346ZM4.1997 7.93205C4.13441 7.91083 4.07139 7.89102 4.01554 7.87346L3.41562 9.78137C3.47272 9.79932 3.52673 9.81631 3.58142 9.83409L4.1997 7.93205ZM5.15572 8.17759C5.15773 8.17763 5.1268 8.17627 5.05248 8.163C4.98371 8.15073 4.89903 8.13215 4.80163 8.10772C4.6066 8.05882 4.39023 7.99399 4.19969 7.93205L3.58142 9.83409C3.79935 9.90493 4.06194 9.98416 4.31517 10.0477C4.54519 10.1053 4.8483 10.1714 5.11252 10.1771L5.15572 8.17759ZM5.43562 8.03254C5.32763 8.10669 5.24901 8.14486 5.19885 8.16339C5.15015 8.18137 5.13845 8.17721 5.15572 8.17759L5.11253 10.1771C5.66147 10.189 6.15668 9.96353 6.56776 9.68125L5.43562 8.03254ZM9.15481 5.65131C9.04983 5.67514 8.97076 5.7116 8.95571 5.71839C8.92515 5.73215 8.89961 5.7453 8.88331 5.75391C8.84994 5.77154 8.81738 5.79037 8.79071 5.80617C8.73546 5.83888 8.6669 5.88154 8.58926 5.93087C8.43208 6.03073 8.21077 6.17509 7.92816 6.36189C7.36159 6.73637 6.53239 7.29215 5.4422 8.02806L6.56118 9.68573C7.65001 8.95074 8.47272 8.39935 9.03096 8.03037C9.31076 7.84543 9.52008 7.709 9.66176 7.61899C9.73355 7.57338 9.78148 7.54383 9.80978 7.52707C9.82487 7.51813 9.82585 7.51791 9.81777 7.52218C9.81413 7.5241 9.79917 7.53199 9.77715 7.54191C9.77063 7.54484 9.69803 7.57889 9.59747 7.60171L9.15481 5.65131ZM10.2061 5.89512C9.94002 5.65862 9.64177 5.6161 9.46791 5.61474C9.30814 5.61349 9.17356 5.64706 9.1548 5.65132L9.59748 7.60171C9.62854 7.59466 9.55339 7.61547 9.45228 7.61468C9.3371 7.61378 9.09676 7.58493 8.87745 7.39L10.2061 5.89512ZM10.5526 7.01235C10.5856 6.87166 10.5904 6.71915 10.569 6.57438C10.5476 6.43023 10.476 6.13501 10.2061 5.89513L8.87743 7.38999C8.65433 7.19169 8.60379 6.95663 8.59059 6.86753C8.58239 6.81218 8.58104 6.7634 8.5825 6.72278C8.5837 6.68954 8.5878 6.63076 8.60542 6.55566L10.5526 7.01235ZM8.41356 9.33358C8.72193 9.04689 9.18253 8.61872 9.57033 8.24535C9.76315 8.05971 9.94629 7.87965 10.0863 7.73373C10.155 7.66221 10.2244 7.5874 10.2823 7.51836C10.3104 7.48488 10.3477 7.43879 10.3838 7.38634C10.3944 7.37091 10.5034 7.22198 10.5526 7.01237L8.60543 6.55563C8.6333 6.4368 8.67696 6.35343 8.69188 6.32565C8.71163 6.28889 8.72887 6.2632 8.7364 6.25227C8.75135 6.23054 8.75919 6.22212 8.75046 6.23252C8.73476 6.25122 8.70087 6.28895 8.64338 6.34885C8.53119 6.46576 8.37075 6.62399 8.18319 6.80458C7.81021 7.16367 7.36274 7.57971 7.05178 7.86881L8.41356 9.33358ZM8.09503 9.63067C8.08431 9.64181 8.08217 9.64335 8.10452 9.62209C8.12135 9.60608 8.1448 9.58401 8.17506 9.55569C8.23544 9.49918 8.31653 9.42379 8.41356 9.33358L7.05178 7.86881C6.8795 8.02897 6.7077 8.18802 6.65427 8.24351L8.09503 9.63067ZM7.88062 9.84301C7.94013 9.78564 8.01733 9.71137 8.09503 9.63067L6.65427 8.24351C6.60653 8.29309 6.5559 8.34205 6.49255 8.40313L7.88062 9.84301ZM7.75259 9.37619C7.63366 9.29782 7.6486 9.2842 7.69163 9.34871C7.71782 9.38797 7.75391 9.45567 7.7748 9.54983C7.79633 9.64681 7.79537 9.74346 7.77832 9.82989C7.7479 9.98408 7.67639 10.0552 7.70479 10.0207C7.73063 9.98941 7.77442 9.94539 7.88062 9.84301L6.49255 8.40313C6.40901 8.48366 6.27493 8.61111 6.16193 8.74811C6.05149 8.882 5.88017 9.11825 5.81615 9.44275C5.65318 10.2687 6.26492 10.7911 6.65209 11.0462L7.75259 9.37619ZM8.6141 9.95555C8.35333 9.77796 8.08629 9.5961 7.75259 9.37619L6.65209 11.0462C6.97176 11.2568 7.22754 11.431 7.48835 11.6086L8.6141 9.95555ZM9.5359 10.5741C9.17642 10.3385 8.89876 10.1494 8.6141 9.95555L7.48836 11.6086C7.77333 11.8027 8.06383 12.0005 8.43945 12.2468L9.5359 10.5741ZM9.83835 10.7834C9.75357 10.723 9.6485 10.6479 9.5359 10.5741L8.43945 12.2468C8.51413 12.2957 8.58793 12.3482 8.67736 12.4119L9.83835 10.7834ZM10.1634 11.0166C10.2105 11.0123 10.2284 11.0305 10.1786 11.0063C10.1499 10.9924 10.1093 10.9695 10.0498 10.9305C9.98889 10.8906 9.92438 10.8448 9.83835 10.7834L8.67736 12.4119C8.93393 12.5949 9.54325 13.0821 10.3466 13.0082L10.1634 11.0166ZM9.81876 11.0084C9.79948 11.1115 9.77941 11.1759 9.76576 11.2114C9.75195 11.2473 9.74853 11.2436 9.76708 11.2189C9.78697 11.1925 9.83101 11.1436 9.90675 11.099C9.98449 11.0531 10.0733 11.0249 10.1634 11.0166L10.3466 13.0082C11.2771 12.9226 11.6547 12.0709 11.7847 11.3761L9.81876 11.0084ZM10.7126 5.3459C10.597 6.55997 10.0844 9.58804 9.81876 11.0084L11.7847 11.3761C12.049 9.96282 12.5783 6.85131 12.7036 5.5354L10.7126 5.3459ZM10.709 5.29441C10.708 5.28867 10.7077 5.286 10.7078 5.28683C10.7079 5.28738 10.7082 5.2896 10.7086 5.29335C10.7094 5.30112 10.7104 5.31164 10.711 5.32321C10.7117 5.33492 10.712 5.34449 10.7119 5.351C10.7119 5.35833 10.7116 5.35615 10.7126 5.3459L12.7036 5.5354C12.725 5.31085 12.7008 5.0763 12.6804 4.95702L10.709 5.29441ZM10.9508 5.68559C10.7397 5.51437 10.709 5.29451 10.709 5.2944L12.6804 4.95704C12.659 4.83239 12.5838 4.43511 12.2109 4.13255L10.9508 5.68559ZM11.2885 5.8159C11.2427 5.81671 11.212 5.81267 11.1824 5.80559C11.1644 5.80131 11.1356 5.79315 11.0994 5.77727C11.0637 5.76159 11.01 5.73364 10.9508 5.68559L12.2109 4.13255C12.0041 3.96473 11.7849 3.89325 11.6471 3.86033C11.5029 3.8259 11.3651 3.81424 11.2532 3.81621L11.2885 5.8159ZM8.67065 6.82927C9.78514 6.36572 10.4347 6.10361 10.8401 5.95649C11.2628 5.80311 11.3177 5.81539 11.2885 5.8159L11.2532 3.81621C10.9231 3.82203 10.5967 3.91721 10.1579 4.07644C9.70188 4.24192 9.00978 4.52211 7.90258 4.98264L8.67065 6.82927Z" fill="white" mask="url(#path-1-inside-1_302_68286)"/>
</g>
<defs>
<clipPath id="clip0_302_68286">
<rect width="16" height="16" fill="white"/>
</clipPath>
</defs>
</svg>
