<svg width="16" height="16" viewBox="0 0 16 16" fill="none" xmlns="http://www.w3.org/2000/svg">
<path d="M0 16C0.171967 15.3712 0.335585 14.7742 0.498536 14.1768C0.695213 13.4562 0.894226 12.736 1.08489 12.0137C1.10353 11.936 1.09456 11.8542 1.05951 11.7823C0.291508 10.3879 -0.0424073 8.8926 0.091159 7.31251C0.282493 5.05056 1.27689 3.19265 3.03296 1.75247C4.00965 0.948143 5.1716 0.400223 6.41352 0.158356C10.124 -0.579599 13.6929 1.31905 15.2219 4.65754C15.7925 5.90538 16.0089 7.21767 15.9027 8.57972C15.6359 12.0054 13.1025 14.9211 9.748 15.6691C7.85704 16.0905 6.04822 15.8431 4.32154 14.9679C4.24451 14.9322 4.15779 14.9233 4.07511 14.9425C2.78386 15.2764 1.49394 15.6143 0.204022 15.9519C0.146589 15.9659 0.0888216 15.9786 0 16ZM1.91534 14.106C1.99147 14.0877 2.04891 14.0746 2.10601 14.0596C2.80723 13.8763 3.50845 13.6966 4.20968 13.5056C4.35126 13.4672 4.45844 13.489 4.58199 13.5621C6.11032 14.4677 7.74484 14.7358 9.47953 14.3454C13.186 13.5107 15.4302 9.60384 14.2879 5.98285C13.2471 2.68443 9.95369 0.773763 6.56579 1.50838C3.77158 2.11577 1.55772 4.56271 1.41814 7.64976C1.36037 8.92599 1.64053 10.1348 2.30836 11.2267C2.51973 11.5723 2.55679 11.8611 2.43291 12.2371C2.23356 12.8442 2.08864 13.4696 1.91534 14.106V14.106Z" fill="white"/>
<path d="M3.95312 6.14496C3.96481 5.48247 4.2236 4.93752 4.69141 4.48306C4.75938 4.41321 4.84085 4.35792 4.93086 4.32055C5.02087 4.28318 5.11754 4.26451 5.21499 4.26568C5.32618 4.26568 5.43838 4.28237 5.54891 4.27135C5.78265 4.24831 5.91621 4.36318 5.99802 4.56186C6.21774 5.08811 6.4448 5.61169 6.64916 6.14395C6.68622 6.24045 6.66452 6.39472 6.60909 6.48455C6.45866 6.71706 6.29406 6.94009 6.11623 7.15238C6.01004 7.28394 6.00136 7.40081 6.08718 7.54506C6.73397 8.63096 7.63321 9.42067 8.81226 9.88648C8.97187 9.94959 9.1021 9.92455 9.21129 9.78631C9.40763 9.53854 9.61199 9.29746 9.80366 9.04535C9.91385 8.89943 10.0427 8.845 10.2064 8.92046C10.774 9.1876 11.3377 9.45473 11.8976 9.73488C11.9564 9.76427 12.0108 9.86378 12.0132 9.9329C12.0359 10.5223 11.8646 11.0158 11.3393 11.3594C10.6855 11.7868 9.999 11.8242 9.26906 11.6192C7.39679 11.0936 6.00637 9.92288 4.89009 8.37752C4.52278 7.86663 4.18419 7.34037 4.04128 6.71662C3.99653 6.53063 3.98117 6.33629 3.95312 6.14496Z" fill="white"/>
</svg>
