<svg width="55" height="55" viewBox="0 0 55 55" fill="none" xmlns="http://www.w3.org/2000/svg">
<rect width="55" height="55" fill="white"/>
<path d="M50.4154 10.702V38.3625C50.4154 40.5625 48.6279 42.6249 46.4279 42.8999L45.6716 42.9917C40.6758 43.6563 32.9757 46.1999 28.5757 48.6291C27.9799 48.9729 26.9946 48.9729 26.3758 48.6291L26.284 48.5834C21.884 46.1771 14.2071 43.6563 9.23418 42.9917L8.56951 42.8999C6.36951 42.6249 4.58203 40.5625 4.58203 38.3625V10.6791C4.58203 7.95203 6.80489 5.88955 9.53197 6.11872C14.3445 6.5083 21.632 8.93753 25.7111 11.4813L26.284 11.8249C26.9486 12.2374 28.0488 12.2374 28.7133 11.8249L29.1029 11.5729C30.5466 10.6791 32.3799 9.78538 34.3737 8.9833V18.3333L38.957 15.2854L43.5404 18.3333V6.3709C44.1591 6.25632 44.755 6.18749 45.305 6.14165H45.4425C48.1696 5.91249 50.4154 7.95205 50.4154 10.702Z" fill="#007D60" fill-opacity="0.2" stroke="#007D60" stroke-width="3" stroke-linecap="round" stroke-linejoin="round"/>
<path d="M27.5 12.5813V46.9563V12.5813Z" fill="#007D60" fill-opacity="0.2"/>
<path d="M27.5 12.5813V46.9563" stroke="#007D60" stroke-width="3" stroke-linecap="round" stroke-linejoin="round"/>
<path d="M43.5417 6.37085V18.3333L38.9583 15.2853L34.375 18.3333V8.98324C37.3771 7.79158 40.7229 6.82918 43.5417 6.37085Z" fill="#007D60" stroke="#007D60" stroke-width="3" stroke-linecap="round" stroke-linejoin="round"/>
</svg>
