<svg width="55" height="55" viewBox="0 0 55 55" fill="none" xmlns="http://www.w3.org/2000/svg">
<path d="M27.8438 37.8125V42.625" stroke="#FFCD04" stroke-width="3" stroke-linecap="round" stroke-linejoin="round"/>
<path d="M16.3867 50.4167H39.3034V48.1251C39.3034 45.6042 37.2409 43.5417 34.72 43.5417H20.9701C18.4492 43.5417 16.3867 45.6042 16.3867 48.1251V50.4167Z" fill="#FFCD04" fill-opacity="0.2" stroke="#FFCD04" stroke-width="3" stroke-miterlimit="10"/>
<path d="M14.0938 50.4167H41.5938" stroke="#FFCD04" stroke-width="3" stroke-linecap="round" stroke-linejoin="round"/>
<path d="M27.4987 36.6666C18.6299 36.6666 11.457 29.4937 11.457 20.6249V13.7499C11.457 8.68533 15.5591 4.58325 20.6237 4.58325H34.3737C39.4383 4.58325 43.5404 8.68533 43.5404 13.7499V20.6249C43.5404 29.4937 36.3674 36.6666 27.4987 36.6666Z" fill="#FFCD04" fill-opacity="0.2" stroke="#FFCD04" stroke-width="3" stroke-linecap="round" stroke-linejoin="round"/>
<path d="M12.5362 26.6979C10.8174 26.1479 9.30495 25.1396 8.11328 23.9479C6.05078 21.6563 4.67578 18.9063 4.67578 15.6979C4.67578 12.4896 7.19661 9.96875 10.4049 9.96875H11.8945C11.4362 11.0229 11.207 12.1917 11.207 13.4063V20.2813C11.207 22.5729 11.6883 24.7271 12.5362 26.6979Z" stroke="#FFCD04" stroke-width="3" stroke-linecap="round" stroke-linejoin="round"/>
<path d="M42.4648 26.6979C44.1836 26.1479 45.6961 25.1396 46.8878 23.9479C48.9503 21.6563 50.3253 18.9063 50.3253 15.6979C50.3253 12.4896 47.8044 9.96875 44.5961 9.96875H43.1065C43.5648 11.0229 43.794 12.1917 43.794 13.4063V20.2813C43.794 22.5729 43.3128 24.7271 42.4648 26.6979Z" stroke="#FFCD04" stroke-width="3" stroke-linecap="round" stroke-linejoin="round"/>
</svg>
