<svg width="55" height="55" viewBox="0 0 55 55" fill="none" xmlns="http://www.w3.org/2000/svg">
<path d="M41.2516 16.4083C41.1141 16.3853 40.9536 16.3853 40.8161 16.4083C37.6536 16.2937 35.1328 13.7041 35.1328 10.4958C35.1328 7.21867 37.7682 4.58325 41.0453 4.58325C44.3224 4.58325 46.9578 7.24159 46.9578 10.4958C46.9349 13.7041 44.4141 16.2937 41.2516 16.4083Z" fill="#8C03E1" fill-opacity="0.2" stroke="#8C03E1" stroke-width="3" stroke-linecap="round" stroke-linejoin="round"/>
<path d="M38.893 33.0917C42.0326 33.6188 45.493 33.0688 47.9221 31.4417C51.1534 29.2875 51.1534 25.7584 47.9221 23.6042C45.4701 21.9771 41.9638 21.4271 38.8242 21.9771" fill="#8C03E1" fill-opacity="0.2"/>
<path d="M38.893 33.0917C42.0326 33.6188 45.493 33.0688 47.9221 31.4417C51.1534 29.2875 51.1534 25.7584 47.9221 23.6042C45.4701 21.9771 41.9638 21.4271 38.8242 21.9771" stroke="#8C03E1" stroke-width="3" stroke-linecap="round" stroke-linejoin="round"/>
<path d="M13.6828 16.4083C13.8203 16.3853 13.9807 16.3853 14.1182 16.4083C17.2807 16.2937 19.8016 13.7041 19.8016 10.4958C19.8016 7.21867 17.1662 4.58325 13.8891 4.58325C10.612 4.58325 7.97656 7.24159 7.97656 10.4958C7.99948 13.7041 10.5203 16.2937 13.6828 16.4083Z" fill="#8C03E1" fill-opacity="0.2" stroke="#8C03E1" stroke-width="3" stroke-linecap="round" stroke-linejoin="round"/>
<path d="M16.0424 33.0917C12.9029 33.6188 9.44245 33.0688 7.01328 31.4417C3.78203 29.2875 3.78203 25.7584 7.01328 23.6042C9.46536 21.9771 12.9716 21.4271 16.1112 21.9771" fill="#8C03E1" fill-opacity="0.2"/>
<path d="M16.0424 33.0917C12.9029 33.6188 9.44245 33.0688 7.01328 31.4417C3.78203 29.2875 3.78203 25.7584 7.01328 23.6042C9.46536 21.9771 12.9716 21.4271 16.1112 21.9771" stroke="#8C03E1" stroke-width="3" stroke-linecap="round" stroke-linejoin="round"/>
<path d="M27.4977 33.5272C27.3602 33.5042 27.1997 33.5042 27.0622 33.5272C23.8997 33.4126 21.3789 30.823 21.3789 27.6147C21.3789 24.3376 24.0143 21.7021 27.2914 21.7021C30.5685 21.7021 33.2039 24.3605 33.2039 27.6147C33.181 30.823 30.6602 33.4355 27.4977 33.5272Z" fill="#8C03E1" fill-opacity="0.2" stroke="#8C03E1" stroke-width="3" stroke-linecap="round" stroke-linejoin="round"/>
<path d="M20.8297 40.7459C17.5984 42.9001 17.5984 46.4293 20.8297 48.5834C24.4964 51.0355 30.5005 51.0355 34.1672 48.5834C37.3984 46.4293 37.3984 42.9001 34.1672 40.7459C30.5234 38.3168 24.4964 38.3168 20.8297 40.7459Z" fill="#8C03E1" fill-opacity="0.2" stroke="#8C03E1" stroke-width="3" stroke-linecap="round" stroke-linejoin="round"/>
</svg>
