<svg width="1920" height="1743" viewBox="0 0 1920 1743" fill="none" xmlns="http://www.w3.org/2000/svg">
<ellipse cx="116.742" cy="116.742" rx="116.742" ry="116.742" transform="matrix(1 0 0 -1 337.297 1141.04)" fill="url(#paint0_linear_494_1990)"/>
<ellipse cx="78.2592" cy="78.2592" rx="78.2592" ry="78.2592" transform="matrix(1 0 0 -1 55.3086 1321.49)" fill="url(#paint1_linear_494_1990)"/>
<ellipse cx="78.2592" cy="78.2592" rx="78.2592" ry="78.2592" transform="matrix(1 0 0 -1 1449.73 854.519)" fill="url(#paint2_linear_494_1990)"/>
<ellipse cx="131.618" cy="131.618" rx="131.618" ry="131.618" transform="matrix(1 0 0 -1 696.254 1093.82)" fill="url(#paint3_linear_494_1990)"/>
<ellipse cx="131.618" cy="131.618" rx="131.618" ry="131.618" transform="matrix(1 0 0 -1 696.254 229.741)" fill="url(#paint4_linear_494_1990)"/>
<ellipse cx="116.742" cy="116.742" rx="116.742" ry="116.742" transform="matrix(1 0 0 -1 919.398 802.776)" fill="url(#paint5_linear_494_1990)"/>
<ellipse cx="99.2793" cy="99.2792" rx="99.2793" ry="99.2792" transform="matrix(1 0 0 -1 337.297 1533.63)" fill="url(#paint6_linear_494_1990)"/>
<ellipse cx="159.429" cy="159.429" rx="159.429" ry="159.429" transform="matrix(1 0 0 -1 919.398 1868.01)" fill="url(#paint7_linear_494_1990)"/>
<ellipse cx="159.429" cy="159.429" rx="159.429" ry="159.429" transform="matrix(1 0 0 -1 79.8789 533.721)" fill="url(#paint8_linear_494_1990)"/>
<ellipse cx="159.429" cy="159.429" rx="159.429" ry="159.429" transform="matrix(1 0 0 -1 978.246 1368.7)" fill="url(#paint9_linear_494_1990)"/>
<g filter="url(#filter0_b_494_1990)">
<rect width="2050.1" height="2182" transform="matrix(1 0 0 -1 -106 2046)" fill="white" fill-opacity="0.3"/>
</g>
<defs>
<filter id="filter0_b_494_1990" x="-325.7" y="-355.7" width="2489.49" height="2621.4" filterUnits="userSpaceOnUse" color-interpolation-filters="sRGB">
<feFlood flood-opacity="0" result="BackgroundImageFix"/>
<feGaussianBlur in="BackgroundImageFix" stdDeviation="109.85"/>
<feComposite in2="SourceAlpha" operator="in" result="effect1_backgroundBlur_494_1990"/>
<feBlend mode="normal" in="SourceGraphic" in2="effect1_backgroundBlur_494_1990" result="shape"/>
</filter>
<linearGradient id="paint0_linear_494_1990" x1="116.742" y1="233.484" x2="116.742" y2="0" gradientUnits="userSpaceOnUse">
<stop stop-color="#007BFF"/>
<stop offset="1" stop-color="#00BBFF"/>
</linearGradient>
<linearGradient id="paint1_linear_494_1990" x1="78.2592" y1="156.518" x2="78.2592" y2="0" gradientUnits="userSpaceOnUse">
<stop stop-color="#007BFF"/>
<stop offset="1" stop-color="#00BBFF"/>
</linearGradient>
<linearGradient id="paint2_linear_494_1990" x1="78.2592" y1="156.518" x2="78.2592" y2="0" gradientUnits="userSpaceOnUse">
<stop stop-color="#007BFF"/>
<stop offset="1" stop-color="#00BBFF"/>
</linearGradient>
<linearGradient id="paint3_linear_494_1990" x1="131.618" y1="263.235" x2="131.618" y2="0" gradientUnits="userSpaceOnUse">
<stop stop-color="#007BFF"/>
<stop offset="1" stop-color="#00BBFF"/>
</linearGradient>
<linearGradient id="paint4_linear_494_1990" x1="131.618" y1="263.235" x2="131.618" y2="0" gradientUnits="userSpaceOnUse">
<stop stop-color="#007BFF"/>
<stop offset="1" stop-color="#00BBFF"/>
</linearGradient>
<linearGradient id="paint5_linear_494_1990" x1="116.742" y1="233.484" x2="116.742" y2="0" gradientUnits="userSpaceOnUse">
<stop stop-color="#007BFF"/>
<stop offset="1" stop-color="#00BBFF"/>
</linearGradient>
<linearGradient id="paint6_linear_494_1990" x1="99.2793" y1="198.558" x2="99.2793" y2="0" gradientUnits="userSpaceOnUse">
<stop stop-color="#007BFF"/>
<stop offset="1" stop-color="#00BBFF"/>
</linearGradient>
<linearGradient id="paint7_linear_494_1990" x1="159.429" y1="318.858" x2="159.429" y2="0" gradientUnits="userSpaceOnUse">
<stop stop-color="#007BFF"/>
<stop offset="1" stop-color="#00BBFF"/>
</linearGradient>
<linearGradient id="paint8_linear_494_1990" x1="159.429" y1="318.858" x2="159.429" y2="0" gradientUnits="userSpaceOnUse">
<stop stop-color="#007BFF"/>
<stop offset="1" stop-color="#00BBFF"/>
</linearGradient>
<linearGradient id="paint9_linear_494_1990" x1="159.429" y1="318.858" x2="159.429" y2="0" gradientUnits="userSpaceOnUse">
<stop stop-color="#007BFF"/>
<stop offset="1" stop-color="#00BBFF"/>
</linearGradient>
</defs>
</svg>
