<svg width="223" height="70" viewBox="0 0 223 70" fill="none" xmlns="http://www.w3.org/2000/svg">
<g clip-path="url(#clip0_630_4230)">
<path d="M54.6121 69.451C54.1704 69.4004 54.0835 69.3351 53.8735 68.8644L53.7576 68.611L53.0189 68.6038C52.5771 68.6038 52.2151 68.5675 52.1209 68.5168C52.034 68.4661 51.6285 67.9519 51.2229 67.3798L50.477 66.3297H49.3038C47.9567 66.3297 47.964 66.3297 47.8264 65.7504C47.7757 65.5476 47.7105 65.3665 47.6743 65.3521C47.6453 65.3303 47.5078 65.4534 47.3774 65.62C47.0804 66.0038 47.0297 66.04 46.8849 65.9676C46.8197 65.9314 46.4287 64.9537 45.9797 63.6864L45.1831 61.4703L44.6544 60.8403C44.1981 60.2971 44.1329 60.1812 44.1691 60.0074C44.1909 59.8988 44.1909 59.8119 44.1619 59.8119C44.1329 59.8119 43.684 59.9422 43.1697 60.1088C42.279 60.3912 42.1849 60.4058 41.6417 60.3623C40.9175 60.3116 40.8306 60.2392 40.9465 59.8046C41.0261 59.5005 41.0261 59.486 40.8233 59.3195C40.4323 59.0008 40.2295 58.9284 39.8602 58.979C39.6212 59.008 39.498 58.9936 39.4474 58.9284C39.4039 58.8777 39.3315 58.4214 39.2808 57.929C39.2301 57.4293 39.1577 56.9658 39.1215 56.9006C39.0852 56.8282 38.7521 56.6761 38.3393 56.5458L37.6224 56.314L37.2023 56.4951L36.7823 56.6833L35.6598 56.5674C34.8342 56.4878 34.4504 56.4733 34.1824 56.5313C33.6972 56.6327 31.4449 56.2923 30.699 56.0098C30.2355 55.836 30.1848 55.8288 30.1051 55.9374C30.0182 56.0605 30.0255 56.1257 30.2934 56.8717C30.5034 57.4583 30.489 57.6393 30.2572 57.6393C30.1559 57.6393 29.9458 57.5741 29.7937 57.4945C29.6344 57.4148 29.3954 57.3496 29.2506 57.3496C29.0116 57.3496 28.9971 57.3641 28.9247 57.6538C28.7581 58.3273 28.7653 58.32 28.4105 58.3635C28.2367 58.378 28.0918 58.4359 28.1063 58.4793C28.1136 58.5228 28.2802 58.8052 28.4829 59.1094C28.6857 59.4136 28.8522 59.7177 28.8522 59.7902C28.8522 59.9712 28.1498 60.7534 27.9905 60.7534C27.9253 60.7534 27.708 60.6375 27.5125 60.4999C27.1069 60.2102 26.9693 60.1885 26.7883 60.3912C26.5855 60.6085 26.4624 60.5723 26.0061 60.1523C25.6368 59.8191 25.5789 59.7322 25.5137 59.3846C25.4774 59.1746 25.4268 58.9718 25.3978 58.9284C25.3543 58.8559 25.0067 58.8777 24.6664 58.979C24.4998 59.0298 24.4926 59.0225 23.9783 58.407L23.8046 58.1897L23.1745 58.3418C22.443 58.5083 22.3199 58.4649 22.1751 58.0014C22.0954 57.7189 22.0882 57.7117 21.7623 57.7262L21.4364 57.7479L21.3351 57.241C21.067 55.8433 21.1323 55.9881 20.7339 55.8143C20.3718 55.6622 20.3284 55.6043 20.2849 55.1408C20.2704 54.938 20.2487 54.9235 20.017 54.938C19.8721 54.9525 19.6911 54.9742 19.6042 54.996C19.3942 55.0394 19.2204 54.8583 19.2204 54.5976C19.2204 54.4817 19.1841 54.3804 19.1407 54.3659C19.0972 54.3514 18.6338 54.4093 18.1051 54.4963C17.5837 54.5832 16.9753 54.6773 16.7581 54.7135C16.3742 54.7714 16.3597 54.786 16.2438 55.0829C16.0773 55.5464 15.9832 55.6115 15.5994 55.5391C15.2155 55.4667 15.1431 55.3798 15.0272 54.8511C14.9765 54.6339 14.9041 54.4311 14.8679 54.4094C14.8317 54.3876 14.5637 54.4963 14.274 54.6483C13.7743 54.909 13.7453 54.938 13.7237 55.1987C13.7092 55.4522 13.6657 55.5029 13.195 55.7998C12.9198 55.9808 12.6736 56.1692 12.6591 56.2198C12.6374 56.2705 12.6518 56.4009 12.6953 56.5023C12.7532 56.6544 12.7459 56.763 12.6663 56.9586C12.4997 57.3496 12.5287 57.4437 12.8763 57.7117C13.0719 57.8493 13.2312 58.0449 13.2674 58.1752C13.3615 58.4721 13.434 59.8264 13.3688 59.9278C13.3398 59.9712 13.2167 60.0509 13.1009 60.1088C12.9777 60.1668 12.8836 60.2464 12.8908 60.2899C12.8981 60.3261 12.9271 60.4347 12.9487 60.5361C13.0356 60.9199 12.9632 60.9344 11.7176 60.7968L10.5734 60.6737L10.1968 60.9344C9.98679 61.072 9.59567 61.2893 9.3205 61.4052L8.82802 61.6152L8.8208 62.3973C8.81357 62.8246 8.80628 63.2156 8.79905 63.2663C8.79183 63.3098 8.62524 63.5633 8.42975 63.824L8.0676 64.2947V65.4824C8.0676 66.3442 8.03863 66.6919 7.97347 66.7425C7.85036 66.8439 6.90166 67.0539 6.55404 67.0539C6.134 67.0539 6.03985 66.8801 6.03985 66.1414V65.5476L5.64155 64.9465C5.23599 64.3237 5.18529 64.1644 5.31565 63.8312C5.36635 63.6791 5.35186 63.5778 5.22875 63.3388C5.02597 62.926 4.74353 62.5639 4.6349 62.5639C4.58421 62.5639 4.37419 62.5131 4.17865 62.4553C3.75861 62.3321 3.76586 62.3394 3.46169 61.2603C3.28788 60.623 3.24443 60.5433 2.9113 60.2464C2.69403 60.0509 2.35366 59.5946 2.06398 59.1239C1.6367 58.4287 1.54979 58.3273 1.29632 58.2404C1.137 58.1824 0.963193 58.1028 0.91974 58.0521C0.869047 58.0014 0.811109 57.5741 0.782139 56.9875C0.75317 56.4444 0.687993 55.8795 0.630057 55.7202C0.296923 54.7787 0.173809 54.3369 0.0869047 53.8372L0 53.2723L0.195535 53.1058C0.470732 52.8668 0.673509 52.8813 0.905255 53.1637L1.10079 53.3954L1.39047 53.1637C1.66566 52.9392 1.70912 52.932 2.0857 52.9754L2.49126 53.0189V52.6568C2.49126 52.1571 2.57817 52.0991 3.16477 52.2005C3.75137 52.3019 3.73689 52.3019 3.64274 52.1281C3.53411 51.9253 3.60654 51.7443 3.90346 51.4835C4.32349 51.1215 4.87389 51.1866 5.40255 51.6719C5.55464 51.8095 5.71396 51.9181 5.75018 51.9036C5.77914 51.8891 5.96743 51.6719 6.15573 51.4184C6.45989 51.0128 6.56128 50.9332 6.9089 50.8173C7.12614 50.7449 7.30724 50.6869 7.31447 50.6869C7.35066 50.6797 7.48828 50.209 7.48828 50.0859C7.48828 50.0062 7.34344 49.7093 7.1624 49.4269C6.86545 48.9488 6.83648 48.8547 6.7713 48.2029C6.72785 47.8191 6.67716 47.4715 6.65542 47.4281C6.6337 47.3918 6.44541 47.2832 6.23539 47.189C5.91674 47.0442 5.81535 46.9428 5.58361 46.559C5.43152 46.3055 5.31565 46.0665 5.31565 46.0231C5.31565 45.9869 5.38083 45.7334 5.46774 45.4582L5.62706 44.9658L5.46049 44.4371C5.37359 44.1474 5.30841 43.8433 5.32289 43.7636C5.33738 43.6911 5.48221 43.5536 5.64155 43.4739C5.85881 43.358 5.96019 43.2494 6.05434 43.0031C6.25712 42.4673 6.23539 42.4311 5.79362 42.4311C5.33738 42.4311 5.25771 42.3586 5.22875 41.9241C5.20702 41.6199 5.18529 41.5837 4.89561 41.4533C4.55524 41.294 4.48282 41.1782 4.59869 40.9682C4.84492 40.4974 5.62706 39.3894 5.70672 39.3894C5.83708 39.3894 5.94571 39.527 6.00365 39.7732C6.06158 40.0049 6.25712 40.128 6.51783 40.0991C6.70612 40.0774 6.70612 40.0629 6.72061 39.498C6.72785 39.0563 6.78579 38.7304 6.96684 38.1582C7.19859 37.4485 7.24201 37.3689 7.67655 36.9198C7.93005 36.6591 8.14006 36.3767 8.14006 36.297C8.14006 36.2246 7.95902 35.7176 7.73449 35.1818C7.21304 33.9289 7.23479 34.0158 7.43035 33.7913C7.52448 33.6754 7.80695 33.2337 8.06037 32.7919C8.5673 31.9084 8.76286 31.7128 9.12494 31.7128C9.33495 31.7128 9.40018 31.6622 9.66813 31.2711C9.96504 30.8583 10.0012 30.8293 10.5227 30.67C10.8268 30.5759 11.2541 30.4527 11.4859 30.4021C11.8987 30.3151 11.9059 30.3151 12.5215 30.5903C12.8618 30.7352 13.1515 30.8438 13.1733 30.8293C13.1877 30.8076 13.1371 30.5903 13.0574 30.3441C12.9198 29.9458 12.9125 29.8806 13.0067 29.7358C13.0863 29.6127 13.0936 29.5402 13.0356 29.4461C12.8763 29.1999 13.0646 29.1564 14.2306 29.1709C15.1503 29.1781 15.5341 29.1492 16.4322 28.9899C17.026 28.8884 17.5475 28.7726 17.5837 28.7364C17.6198 28.7002 17.7068 28.3236 17.7792 27.8963C17.8516 27.469 17.9385 27.0924 17.9747 27.0562C18.011 27.02 18.1992 26.9548 18.3948 26.9041C18.7424 26.8172 18.7496 26.8027 19.1117 26.1437C19.4594 25.492 19.4883 25.4557 20.0314 25.1298C20.6253 24.7677 20.9512 24.3911 21.4582 23.4642L21.7189 22.9935L22.3272 22.8558C22.6676 22.7834 22.9573 22.711 22.9717 22.6965C22.9862 22.682 23.0658 22.3634 23.1383 21.994C23.2107 21.6247 23.2904 21.2626 23.3121 21.1901C23.3628 21.0381 23.6452 20.886 24.2825 20.6688C24.7461 20.5167 24.7895 20.5094 25.7744 20.6036C26.3321 20.6542 26.8534 20.6977 26.9403 20.6977C27.2156 20.705 27.3315 20.8932 27.3315 21.3423C27.3315 21.7767 27.2446 21.9361 27.02 21.9361C26.8318 21.9361 26.8824 22.081 27.3749 23.0442C27.7587 23.7973 27.7732 23.8552 27.8674 24.746C27.9253 25.253 28.0339 25.854 28.1208 26.093C28.2005 26.3248 28.2656 26.6362 28.2656 26.781C28.2656 27.2735 27.9977 28.7509 27.8963 28.8522C27.7877 28.9609 26.7521 29.2506 26.4624 29.2506C26.0858 29.2506 25.2023 28.8377 24.9488 28.5481C24.2898 27.7949 23.848 26.8534 23.6597 25.8106C23.5439 25.1371 23.4786 25.0357 23.3193 25.2819C23.2107 25.4412 23.2107 25.5281 23.3049 26.2089C23.3701 26.6289 23.4135 27.0272 23.4135 27.0924C23.4208 27.1649 23.2324 27.3531 22.9935 27.5269C22.7617 27.7008 22.3634 28.0918 22.1099 28.4032L21.6536 28.9753L21.8202 29.7792C22.052 30.909 22.1317 31.0249 22.472 30.67C22.6096 30.5179 22.6169 30.4672 22.5517 30.3368C22.4576 30.1703 22.5082 29.4388 22.6241 29.1274C22.6965 28.9319 23.4424 28.664 23.5655 28.7871C23.609 28.8305 23.6742 29.1853 23.7177 29.5765C23.7901 30.2355 23.819 30.3151 24.058 30.5975C24.3839 30.9959 24.4853 31.0321 24.5867 30.7859C24.985 29.8299 24.9561 29.8661 25.4195 29.743C25.7237 29.6634 26.064 29.6416 26.6072 29.6634C27.6935 29.6996 27.6356 29.6778 27.8674 30.2572C28.0918 30.8438 28.1571 30.8655 28.5988 30.5613L28.8884 30.3586L28.8595 29.8371L28.8378 29.323L29.294 29.1057C29.9168 28.8233 30.2282 28.4394 30.2934 27.8818C30.3513 27.3387 30.4962 27.3169 31.0394 27.7587C31.4304 28.0846 31.4956 28.2005 31.7346 28.9319C31.8142 29.1853 31.7201 29.4316 31.4015 29.7865C31.2059 30.0109 31.1842 30.0109 30.7787 29.8154C30.489 29.6778 30.431 29.6706 30.221 29.7575L29.9893 29.8516L30.04 30.2862C30.1051 30.851 30.1559 30.9452 30.489 31.0393C30.7569 31.1262 30.7641 31.1262 31.1842 30.7279L31.6042 30.3224L33.9 30.3513C36.3116 30.3803 36.6012 30.4165 36.6012 30.6917C36.6012 30.8003 36.4781 30.9018 36.1812 31.0538C35.9495 31.1697 35.7032 31.3145 35.6236 31.3725C35.4787 31.4811 35.4787 31.4884 35.638 31.6477C35.7901 31.7997 35.8191 31.807 36.1088 31.72C36.6809 31.5463 36.8764 31.5463 37.3037 31.7056C37.6441 31.8287 37.8541 31.8504 38.4117 31.8359L39.0998 31.8215V32.1763C39.0998 32.6326 39.2301 32.734 39.5777 32.5312C39.8167 32.3936 39.8239 32.3791 39.8312 31.8866C39.8384 31.2059 39.8239 31.2421 40.1426 31.0972L40.425 30.9669L41.2289 31.4304L42.0328 31.8866L43.0249 33.393C43.5681 34.2185 44.0388 34.8994 44.0678 34.8994C44.0895 34.8994 44.1691 34.8124 44.2343 34.711C44.3502 34.5372 44.3502 34.5155 44.2343 34.3417C44.1474 34.1969 44.1257 34.0665 44.1619 33.7478L44.2126 33.335L43.9157 33.096C43.5681 32.8209 43.5463 32.6543 43.836 32.4225C44.046 32.2487 44.4226 31.5897 44.4226 31.3869C44.4226 31.3218 44.3864 31.2131 44.3357 31.1407C44.2778 31.0466 44.285 30.9162 44.3792 30.6048C44.495 30.1993 44.5095 30.1847 45.1106 29.8154C45.6755 29.475 45.7913 29.3592 46.349 28.6133C46.6822 28.1643 47.0008 27.7732 47.0515 27.7587C47.1022 27.737 47.486 27.8456 47.8988 27.9977C48.4275 28.1932 48.6592 28.3163 48.681 28.4032C48.6954 28.4756 48.6665 28.7509 48.623 29.0188C48.5506 29.4606 48.4926 29.5692 48.0581 30.1124L47.5801 30.7134L47.7105 31.2421L47.8481 31.7708L47.6526 32.285C47.5512 32.5747 47.457 32.8933 47.457 33.0019C47.457 33.1106 47.3484 33.5161 47.2035 33.9144C47.066 34.3055 46.9573 34.6893 46.9573 34.7617C46.9573 34.8341 47.037 35.1021 47.1456 35.3556L47.3339 35.8191L47.0515 36.3839C46.8994 36.6881 46.6097 37.1154 46.4142 37.3182C46.2114 37.5282 45.9145 37.8541 45.7552 38.0351C45.48 38.3538 45.4365 38.3755 45.1034 38.3755C44.9078 38.3755 44.5675 38.3248 44.3502 38.2669C44.1329 38.2089 43.9446 38.1727 43.9302 38.1872C43.9229 38.1945 44.0678 38.3538 44.2633 38.5348C44.7558 38.9911 45.1106 39.049 45.7697 38.7738C46.1028 38.6289 46.3128 38.4841 46.5011 38.2524C46.6459 38.0713 46.9138 37.8251 47.095 37.7092C47.6019 37.3689 47.6091 37.3544 47.6091 36.4129V35.5583L48.0075 35.4063C48.4782 35.2325 48.681 35.2252 49.0141 35.3628C49.2676 35.4714 49.3689 35.6887 49.5282 36.4708C49.5572 36.6447 49.6151 36.7098 49.7238 36.7098C49.8541 36.7098 49.8686 36.6809 49.8252 36.3695C49.7962 36.1884 49.7817 35.9784 49.7817 35.906C49.7817 35.8046 49.3545 35.428 48.92 35.16C48.862 35.1238 48.5941 35.0732 48.3188 35.0442C48.0436 35.0079 47.7757 34.9428 47.7178 34.8994C47.6309 34.8269 47.6091 34.6459 47.6091 34.1896C47.6091 33.5813 47.6091 33.5595 47.935 33.0381L48.2682 32.5022L48.0871 31.7418C47.9567 31.1987 47.9205 30.9234 47.9712 30.8003C48.0436 30.6193 48.5651 30.0689 49.0141 29.7213C49.2603 29.5258 49.2965 29.4606 49.3254 29.1057C49.3544 28.8595 49.4124 28.6712 49.4848 28.6205C49.6514 28.4902 50.0424 28.5046 50.1004 28.6422C50.209 28.9391 50.1294 29.533 49.8831 30.2282C49.4776 31.3435 49.4703 31.2638 50.0714 31.5897C50.3539 31.7418 50.6073 31.8504 50.6291 31.8215C50.658 31.7997 50.4914 31.5897 50.2742 31.3652C50.0497 31.1335 49.8542 30.8945 49.8252 30.8221C49.76 30.6265 50.0352 30.1268 50.2452 30.0762C50.3466 30.0544 50.4625 30.0544 50.5132 30.0834C50.5783 30.1268 50.5856 30.1051 50.5422 30.0037C50.3611 29.5837 50.3973 29.5112 50.8536 29.294C51.0926 29.1781 51.3388 29.1057 51.4039 29.1274C51.4691 29.1564 51.5705 29.2868 51.6285 29.4171C51.6792 29.5547 51.7878 29.6778 51.8674 29.6996C51.9398 29.7213 52.1716 29.9458 52.3816 30.1993C53.1058 31.0756 53.1203 31.09 53.1927 30.9669C53.2796 30.8075 53.1855 30.5903 52.7944 30.0689C52.6133 29.8299 52.454 29.5692 52.4395 29.4896C52.4033 29.1999 52.5482 28.0194 52.6351 27.9035C52.7075 27.8021 52.9972 27.7515 54.1632 27.6428C54.9525 27.5704 55.6188 27.4908 55.6405 27.469C55.655 27.4473 55.6188 27.2807 55.5536 27.0996C55.4305 26.7738 55.4305 26.7593 55.5753 26.513C55.8071 26.1148 56.4734 25.253 56.7413 24.9995C56.8789 24.8764 57.3424 24.6157 57.7769 24.4201C58.3563 24.1667 58.6025 24.0146 58.6822 23.8697C58.7618 23.7394 58.9791 23.5945 59.3919 23.4062C60.0365 23.1238 60.145 23.131 60.2392 23.4932C60.2972 23.7176 60.3985 23.7176 60.8982 23.4714C61.2966 23.2758 61.2966 23.2758 61.2531 23.0152C61.2024 22.711 61.2821 22.6241 61.6804 22.5517L61.9628 22.501L61.9122 22.0592L61.8687 21.6102L62.3032 20.9439C62.897 20.0242 63.2085 19.8938 63.9906 20.2197C64.302 20.3501 64.3382 20.5167 64.121 20.7919C63.9182 21.0454 63.9326 21.067 64.2513 21.067C64.5627 21.067 64.7003 21.1685 64.7003 21.4074C64.7003 21.6175 64.7293 21.6175 65.0624 21.3567C65.3232 21.1467 65.3594 21.1395 66.098 21.1395H66.8585L67.3871 21.5813C67.684 21.8202 67.9665 22.1244 68.0172 22.2475C68.0823 22.3923 68.1186 22.7617 68.1258 23.2758C68.1258 24.1667 68.1186 24.2029 67.4957 25.1226C67.293 25.4195 66.9454 25.9917 66.7281 26.3899C66.5036 26.7883 66.2284 27.2662 66.1198 27.4545L65.917 27.8021H66.0835C66.2067 27.8021 66.4964 27.5777 67.0178 27.0852C67.8217 26.3175 68.4662 25.8468 68.6834 25.8468C68.7631 25.8468 68.879 25.9265 68.9442 26.0278C69.089 26.2524 69.1686 26.2524 69.2701 26.0278C69.3208 25.9192 69.4725 25.8033 69.6538 25.7382C70.2332 25.5354 71.3482 25.2674 71.4642 25.3109C71.5365 25.3399 71.5802 25.4412 71.5802 25.5861C71.5802 25.8323 71.6886 25.9917 71.863 25.9917C72.0005 25.9917 73.5282 25.3689 73.6227 25.2747C73.6657 25.2312 73.6296 25.0719 73.5428 24.8692C73.3475 24.4346 73.3475 24.3042 73.5428 23.9567L73.7019 23.6742H74.3319C74.9405 23.6742 74.962 23.667 75.2594 23.4062C75.4984 23.2035 75.5998 23.16 75.7082 23.2107C75.8242 23.2614 76.548 23.8842 77.6415 24.8692C77.8881 25.0864 77.9173 25.3399 77.6922 25.3399C77.5331 25.3399 77.5693 25.4558 77.7798 25.6223C78.0326 25.8251 79.5464 26.3103 79.5395 26.1871C79.5395 26.1799 79.4158 25.7816 79.2567 25.3036C79.0469 24.6664 78.9962 24.4129 79.0538 24.3405C79.1122 24.2752 79.3289 24.2536 79.8507 24.268L80.5746 24.2898L80.6982 23.9277C80.8358 23.5221 81.024 23.3845 81.4367 23.3845C81.6687 23.3845 81.7694 23.3193 82.1098 22.9789C82.3349 22.7545 82.5086 22.5517 82.5086 22.5299C82.5086 22.501 82.3127 22.3417 82.0737 22.1679C81.8347 22.0013 81.6395 21.8057 81.6395 21.7333C81.6395 21.6682 81.6104 21.3785 81.5742 21.1033C81.5451 20.8208 81.5451 20.5384 81.5812 20.4732C81.618 20.4008 81.9001 20.2053 82.2043 20.0314C83.9279 19.0538 84.5219 18.6772 84.8546 18.3803C85.3618 17.924 85.4701 17.8806 86.0134 17.8806C86.5712 17.8806 86.7164 17.9819 86.5858 18.3151C86.5421 18.4382 86.5275 18.5396 86.5567 18.5541C86.6004 18.5831 88.2656 18.2282 88.4761 18.1485C88.5338 18.1268 88.8596 17.5547 89.2 16.8884L89.8155 15.6645L90.4671 15.3241L91.1195 14.9765L91.612 15.0562C92.0316 15.1213 92.1476 15.1721 92.3797 15.3965L92.6471 15.6645L92.959 15.4472C93.2196 15.259 93.2918 15.1503 93.4509 14.6868C93.6683 14.0496 93.6253 14.1292 94.32 13.1733C94.7618 12.5721 94.8855 12.3404 94.9285 12.0724C94.9577 11.8842 95.0154 11.7031 95.0661 11.6669C95.1098 11.6234 95.4933 11.5727 95.9206 11.5438C96.3409 11.5148 96.7174 11.4714 96.7605 11.4424C96.8695 11.37 96.9202 10.8848 96.8334 10.7906C96.7896 10.7471 96.5507 10.7109 96.3047 10.7109C95.8921 10.7109 95.8268 10.6892 95.5371 10.4502C95.3634 10.3054 95.1967 10.1316 95.1606 10.0519C95.1098 9.95052 95.2759 9.61019 95.8699 8.56007C96.7389 7.01755 96.8841 6.8582 98.5493 5.54739C99.8748 4.51178 102.272 2.88957 102.497 2.88957C102.59 2.88957 102.88 2.95475 103.141 3.04165C103.467 3.15753 103.633 3.17925 103.721 3.12856C103.945 2.99096 103.88 2.9113 103.51 2.8606C103.307 2.83887 103.091 2.78094 103.04 2.73749C102.873 2.59989 102.916 2.28124 103.119 2.09295C103.221 1.9988 103.33 1.78878 103.373 1.62222C103.525 1.02837 103.582 0.955947 104.314 0.470731C104.713 0.202776 105.104 0 105.191 0C105.278 0 105.523 0.123115 105.734 0.282439C106.168 0.60833 106.19 0.673509 106.016 1.33978C105.951 1.56428 105.922 1.76706 105.936 1.78878C105.958 1.81051 106.356 1.88293 106.82 1.96259C107.942 2.15088 107.979 2.16536 108.08 2.54195C108.16 2.81715 108.152 2.88233 107.993 3.172C107.856 3.4472 107.776 3.51238 107.522 3.57032C107.276 3.6355 107.168 3.72964 106.87 4.12071C106.53 4.57696 106.509 4.59144 106.139 4.62765C105.596 4.67835 105.415 4.88837 105.314 5.53291C105.27 5.80811 105.205 6.0833 105.162 6.134C105.104 6.20642 104.944 6.21366 104.524 6.17745C103.916 6.12675 103.836 6.16296 103.945 6.45989C104.003 6.61197 104.075 6.64818 104.394 6.68439C105.618 6.83647 105.574 6.80026 105.835 7.87211L106.001 8.53833L105.762 8.83525C105.574 9.07429 105.546 9.14668 105.625 9.19739C105.77 9.29153 105.777 9.2843 106.255 8.96564C106.754 8.63253 106.791 8.62524 107.392 8.74834C107.79 8.83525 107.863 8.82802 108.355 8.66143C108.652 8.56007 108.949 8.49491 109.021 8.51665C109.173 8.55285 109.89 9.17565 109.89 9.26978C109.89 9.30598 109.644 9.59567 109.347 9.91433C109.044 10.233 108.805 10.5589 108.805 10.6386C108.805 10.7834 109.319 12.8184 109.666 14.0785C110.275 16.2294 110.404 16.606 110.694 17.0115C110.861 17.2578 110.962 17.4678 110.933 17.5329C110.897 17.6271 109.84 18.0254 109.615 18.0254C109.456 18.0254 109.384 18.2426 109.304 18.8944L109.224 19.5825L109.449 20.0676C109.572 20.3356 109.674 20.6036 109.674 20.6688C109.674 20.857 109.456 20.8788 109.159 20.705C109 20.618 108.841 20.5601 108.805 20.5673C108.768 20.5819 108.797 20.7339 108.877 20.9077C109.072 21.3423 109.058 21.4871 108.761 21.8564C108.623 22.0302 108.515 22.2113 108.515 22.2548C108.515 22.3054 108.689 22.6168 108.906 22.95C109.123 23.2904 109.463 23.8263 109.666 24.1521C109.869 24.478 110.079 24.7822 110.137 24.8257C110.281 24.9488 110.404 24.8546 110.354 24.6591C110.304 24.4564 110.412 24.3622 110.818 24.2536C111.26 24.1377 111.411 24.1956 111.651 24.5795C111.947 25.0429 112.396 25.2674 113.07 25.2674C113.512 25.2674 113.576 25.2819 113.62 25.4123C113.678 25.5933 113.591 26.1365 113.49 26.2668C113.403 26.3683 113.62 27.1721 113.758 27.2807C113.802 27.3169 114.069 27.4038 114.366 27.4762C114.967 27.6211 115.062 27.7152 115.134 28.2801C115.185 28.6277 115.17 28.6712 114.96 28.9102C114.757 29.1419 114.735 29.2071 114.757 29.5547L114.779 29.9313L115.286 30.2789C115.561 30.4672 115.829 30.6772 115.879 30.7424C115.938 30.8293 115.974 31.1407 115.974 31.6477V32.4298L116.336 32.8426C116.539 33.0744 116.792 33.4292 116.908 33.6247C117.133 34.0303 117.524 35.5584 117.452 35.7756C117.357 36.087 117.017 35.9494 113.736 34.3055L110.52 32.6905L109.753 31.8504L108.978 31.0176L108.841 30.3441C108.71 29.6778 108.703 29.6634 108.363 29.4027C107.964 29.0984 107.942 29.0261 108.131 28.3308L108.254 27.8674L107.957 26.9838C107.79 26.4986 107.45 25.5281 107.204 24.8329C106.646 23.2397 106.639 23.2324 106.566 22.2041C106.494 21.2119 106.523 21.2481 105.582 20.5891C104.929 20.1329 104.872 20.0387 105.075 19.6911C105.191 19.4738 105.212 19.3 105.104 19.3652C104.995 19.4304 104.669 20.0966 104.677 20.2487C104.684 20.3211 104.916 20.5673 105.191 20.7991L105.697 21.2264L105.654 21.5595C105.618 21.7913 105.661 22.1895 105.792 22.8269C105.994 23.8552 106.016 24.0725 105.9 24.1449C105.857 24.1739 105.603 24.1739 105.343 24.1449C104.901 24.0942 104.843 24.0652 104.495 23.7394C104.053 23.3266 104.126 23.2904 103.525 24.1956C103.322 24.507 103.155 24.8402 103.155 24.9415C103.155 25.2312 104.097 28.2439 104.263 28.5046C104.445 28.7798 104.474 28.7871 104.741 28.5915C104.995 28.4032 105.162 28.4684 105.364 28.845C105.517 29.1347 105.553 29.0622 104.944 29.7792C104.727 30.0327 104.626 30.2499 104.488 30.7786C104.083 32.285 104.148 32.2053 103.438 32.075C102.989 31.9881 102.924 31.9156 103.018 31.6187C103.047 31.4956 103.061 31.3797 103.047 31.3652C103.025 31.3435 102.714 31.5028 102.351 31.72C101.896 31.9881 101.707 32.1401 101.729 32.2197C101.751 32.2777 101.823 32.4732 101.896 32.6543C102.055 33.0744 102.004 33.2047 101.642 33.3133C101.367 33.393 101.345 33.4147 101.33 33.6972C101.309 33.9869 101.302 33.9941 100.889 34.1389C100.49 34.2693 100.476 34.291 100.461 34.5372C100.461 34.6748 100.461 34.8124 100.461 34.8414C100.469 34.8631 100.295 34.9355 100.085 35.0007C99.7227 35.1021 99.6574 35.1673 98.9627 36.0001C98.557 36.4926 98.2311 36.9561 98.2311 37.0357C98.2311 37.1154 98.2819 37.2602 98.3395 37.3616C98.4847 37.6223 98.4701 37.8758 98.2673 38.4117L98.086 38.8824L98.3541 39.317L98.6146 39.7587L98.3757 40.6785L98.1443 41.5982L98.2596 42.6265L98.3833 43.6622L98.1297 44.8354C97.7601 46.5156 97.7601 46.559 97.8831 46.559C97.9415 46.559 98.2166 46.3924 98.5063 46.1969C98.7883 45.9941 99.0565 45.8348 99.1072 45.8348C99.1579 45.8348 99.2663 45.9 99.3531 45.9796C99.5052 46.1245 99.5198 46.1245 99.9762 46.0014C100.237 45.9362 100.49 45.9 100.556 45.9217C100.613 45.9434 100.7 46.1028 100.751 46.2693C100.845 46.559 100.852 46.5662 100.983 46.4431C101.171 46.2765 101.164 46.1462 100.947 45.7986C100.686 45.3785 100.715 45.2482 101.113 44.8716C101.526 44.4878 101.859 44.3936 102.337 44.5168C102.511 44.5674 102.975 44.6037 103.373 44.6037H104.097V44.3791C104.097 44.256 104.14 44.0677 104.206 43.9518C104.35 43.6622 104.278 43.539 103.872 43.4015C103.264 43.1987 103.199 42.7786 103.713 42.3803C103.887 42.25 104.068 42.1631 104.119 42.1776C104.169 42.1993 104.35 42.3948 104.531 42.6193C104.705 42.8438 105.205 43.3363 105.625 43.7056C106.074 44.0967 106.458 44.5022 106.53 44.6543C106.675 44.9512 106.646 44.9296 108.841 46.139C111.071 47.3701 111.274 47.5005 111.252 47.667C111.23 47.7684 111.078 47.8698 110.687 48.0363C110.383 48.1594 110.137 48.3116 110.122 48.3695C110.115 48.4275 110.296 48.9126 110.535 49.4558C110.854 50.18 111.013 50.4697 111.172 50.5783C111.288 50.658 111.861 50.8825 112.44 51.0707C113.468 51.4039 113.512 51.4329 113.794 51.766C114.084 52.1136 114.156 52.3019 114.018 52.3888C113.982 52.4105 113.671 52.3888 113.324 52.3454C112.983 52.3019 112.686 52.2802 112.657 52.3091C112.635 52.3309 112.722 52.5698 112.846 52.8451C113.085 53.3592 113.128 53.6127 112.998 53.6924C112.918 53.7431 112.005 53.3013 111.658 53.0334C111.353 52.8088 110.55 51.7153 110.216 51.0635C109.985 50.6218 109.898 50.5204 109.637 50.4045C109.398 50.2959 109.116 49.999 108.24 48.9416C106.668 47.0225 106.741 47.0877 106.096 46.8125L105.523 46.5662L105.567 46.8994C105.646 47.4787 106.19 48.4781 106.834 49.2385C107.175 49.6296 107.638 50.2959 107.928 50.7956L108.42 51.6646L108.507 53.0768C108.566 54.1414 108.63 54.6628 108.768 55.2132C108.949 55.9157 108.957 56.0316 109 58.9429L109.036 61.9555L108.732 62.6363C108.566 63.0128 108.327 63.5343 108.203 63.795L107.972 64.2657L107.139 64.5192C106.675 64.6641 106.255 64.7944 106.204 64.8089C106.139 64.8379 106.088 65.0406 106.052 65.3882C105.98 66.04 105.683 66.7642 105.48 66.7642C105.407 66.7642 105.256 66.7281 105.14 66.6919C105.024 66.6556 104.792 66.5904 104.626 66.547C104.213 66.4456 104.191 66.308 104.517 65.9821C104.669 65.8373 104.865 65.5621 104.952 65.3738L105.118 65.0334L104.705 64.3816C104.415 63.9109 104.169 63.6212 103.836 63.3532C103.582 63.1432 103.358 62.9332 103.343 62.8825C103.322 62.8318 103.402 62.4915 103.525 62.1293C103.771 61.3906 103.8 61.369 104.488 61.2821C105.039 61.2241 105.075 61.1879 104.98 60.8113C104.937 60.6375 104.879 60.203 104.865 59.8481C104.829 59.2687 104.785 59.0949 104.459 58.3273C104.133 57.5596 104.097 57.4148 104.133 57.1179C104.176 56.8209 104.148 56.7413 103.901 56.343C103.749 56.0967 103.605 55.9012 103.576 55.9012C103.525 55.9012 102.757 57.0889 102.562 57.4799C102.489 57.6248 102.192 58.0014 101.896 58.3055L101.374 58.8705H100.968H100.57L100.005 58.2476C99.556 57.7552 99.4115 57.6393 99.2954 57.6755C99.2156 57.7045 98.8467 57.6827 98.4847 57.632C97.8254 57.5452 97.8039 57.5452 97.3475 57.7262C97.0939 57.8276 96.6667 57.9652 96.3916 58.0304C95.9352 58.1462 95.8844 58.1462 95.7177 58.0376C95.5586 57.929 94.5305 57.0092 92.5895 55.2277C92.2053 54.8729 91.8142 54.5542 91.7204 54.518C91.4668 54.4166 91.1118 54.4383 90.9236 54.5686C90.786 54.6628 90.6415 54.6773 90.0399 54.6339L89.323 54.5832L88.8311 54.8873C87.7231 55.5826 87.0784 56.2705 87.0784 56.7413C87.0784 56.8064 87.2882 57.0817 87.5487 57.3568C87.8023 57.632 88.0197 57.9217 88.0197 58.0014C88.0197 58.0811 87.9329 58.3128 87.8384 58.5083C87.6647 58.8342 87.6578 58.9428 87.6578 59.8699V60.8837L87.9037 61.1806C88.0412 61.3472 88.1357 61.521 88.1211 61.5717C88.0996 61.6224 87.9113 61.7528 87.7008 61.8541C87.3604 62.0207 87.2951 62.0859 87.1506 62.4408C86.9693 62.8825 86.8825 62.9405 86.1655 63.0636C85.8105 63.1287 85.6591 63.1215 85.3402 63.0274L84.9491 62.9115L84.6518 63.2374C84.319 63.5995 84.3551 63.5922 83.5805 63.3605C83.4284 63.3171 83.1672 63.2881 83.0012 63.3025C82.6677 63.3243 82.6385 63.3605 82.0522 64.3671C81.8639 64.6858 81.6541 64.8813 80.8865 65.4462L79.9445 66.1342L78.6412 66.3007C76.8162 66.5325 76.7731 66.5253 76.389 66.2066C75.7227 65.6635 73.688 65.4752 73.0863 65.9025C72.9488 65.9966 72.7029 66.1776 72.5292 66.308C72.3625 66.4384 72.1596 66.547 72.0874 66.547C72.0151 66.547 71.5872 66.4601 71.1314 66.3587C70.5667 66.2356 70.2693 66.1342 70.1901 66.04C70.1248 65.9604 70.0012 65.6707 69.9143 65.3882C69.8351 65.1131 69.7406 64.8668 69.7045 64.8523C69.6107 64.7872 66.996 64.2295 66.8223 64.2295C66.7064 64.2295 66.5326 64.4106 66.1704 64.8958C65.9025 65.2651 65.6852 65.6128 65.6925 65.6779C65.6997 65.7359 65.8301 66.1197 65.9894 66.5325C66.1487 66.9381 66.2646 67.3291 66.2429 67.387C66.2211 67.445 65.9749 67.6043 65.707 67.7419L65.2073 67.9954H63.6864C62.1873 67.9954 62.1656 67.9882 62.0642 67.8288C62.0063 67.7419 61.9411 67.5609 61.9122 67.4378C61.8832 67.3074 61.8253 67.1698 61.7673 67.1263C61.7166 67.0901 61.2748 66.9815 60.7824 66.9019L59.8844 66.7498L58.5953 67.387C57.3786 67.9954 57.3062 68.0388 57.2627 68.2633C57.241 68.3937 57.1903 68.5168 57.1541 68.5458C57.1179 68.5675 56.7775 68.6617 56.3865 68.7558C55.7202 68.9151 55.4523 69.0672 55.3436 69.3569C55.3002 69.4655 55.0612 69.4947 54.6121 69.451ZM104.604 45.5089C104.604 45.4872 104.517 45.3351 104.408 45.1758C104.249 44.9368 104.206 44.9006 104.148 44.9947C104.061 45.1612 104.14 45.364 104.329 45.4582C104.517 45.5451 104.604 45.5596 104.604 45.5089ZM51.9833 30.2644C51.8747 30.1413 51.7443 30.0472 51.7081 30.0472C51.6647 30.0472 51.7443 30.1558 51.8747 30.3006C52.0123 30.4382 52.1354 30.5324 52.1571 30.5106C52.1789 30.4962 52.0992 30.3803 51.9833 30.2644ZM49.7817 29.3592C49.789 29.2795 49.789 29.1492 49.7817 29.0695C49.7673 28.9246 49.7673 28.9246 49.7093 29.0695C49.6224 29.265 49.6151 29.7575 49.702 29.6127C49.7383 29.5475 49.7745 29.4388 49.7817 29.3592ZM1.71636 31.6187C1.3615 31.2276 0.0724201 29.3447 0.0724201 29.2143C0.0724201 29.084 0.123115 29.0622 0.644541 29.0115C1.37599 28.9391 1.51359 28.9753 1.70912 29.2868C1.90466 29.5837 1.92638 29.5837 2.19433 29.3809C2.31021 29.3012 2.45505 29.2433 2.50574 29.265C2.60713 29.3084 2.81715 29.9096 3.11407 30.9669C3.20098 31.2856 3.21547 31.4521 3.16477 31.5028C3.07787 31.5897 2.31745 31.778 2.04949 31.778C1.94086 31.7853 1.79603 31.7128 1.71636 31.6187ZM38.3538 28.7436C37.9048 28.4032 37.6876 28.1787 37.6514 28.0411C37.6224 27.9325 37.521 27.4618 37.4268 26.9911C37.2675 26.1871 37.2602 26.122 37.3689 25.7599C37.5137 25.2674 37.5499 25.224 37.9627 25.0864C38.2234 24.9995 38.4552 24.8184 38.9549 24.326C39.4908 23.7828 39.6356 23.6742 39.8239 23.6742C40.005 23.6742 40.0919 23.609 40.273 23.3628C40.4105 23.1745 40.8958 22.7545 41.4824 22.3272C42.0255 21.9289 42.5977 21.5161 42.7497 21.4002C43.0974 21.1467 44.0533 20.9657 45.9072 20.8136C46.6894 20.7484 47.305 20.6615 47.6091 20.5673C48.174 20.3863 48.3913 20.3791 48.6085 20.5311C48.7606 20.6398 48.7751 20.6904 48.7461 21.0454C48.7172 21.3857 48.681 21.4726 48.4057 21.7551C48.2319 21.9289 48.0075 22.0882 47.8988 22.1099C47.6598 22.1679 46.8197 22.2764 45.9072 22.3706C45.1613 22.4503 44.7775 22.6096 43.9374 23.1745C43.7709 23.2904 43.3943 23.4859 43.1046 23.6235C42.8077 23.7611 42.3007 24.087 41.9603 24.3694C41.6199 24.6446 41.1782 24.9923 40.9827 25.1371C40.6278 25.3905 39.9833 26.0786 39.6574 26.542C39.5198 26.7376 39.498 26.868 39.498 27.44C39.498 27.8094 39.5343 28.3236 39.5777 28.5771C39.6718 29.1202 39.6067 29.2506 39.2373 29.2506C39.0563 29.2506 38.8535 29.1347 38.3538 28.7436ZM80.5023 20.2197C80.4155 20.0604 80.3286 19.0682 80.3863 18.9234C80.4085 18.8654 80.4592 18.822 80.4877 18.822C80.5238 18.822 80.676 18.7351 80.8281 18.6338C81.0602 18.4672 81.1616 18.4454 81.5381 18.4744C82.023 18.5034 82.4433 18.7279 82.4433 18.9669C82.4433 19.0972 80.9518 20.256 80.6906 20.3211C80.6253 20.3429 80.5384 20.2994 80.5023 20.2197ZM60.9344 20.1256C60.8548 20.0749 60.8475 19.9373 60.9128 19.3507C60.9562 18.9597 60.9779 18.6265 60.9634 18.612C60.9562 18.6048 60.8765 18.6265 60.7969 18.67C60.681 18.7351 60.471 18.7134 59.8771 18.5758C59.4571 18.4744 59.0733 18.3585 59.0153 18.3151C58.8343 18.1703 58.5953 17.265 58.6459 16.9463C58.6894 16.7074 58.675 16.635 58.5808 16.606C58.5228 16.577 58.4722 16.5191 58.4722 16.4684C58.4722 16.4104 58.3563 16.2366 58.2187 16.07C58.0739 15.9035 57.9652 15.7514 57.9652 15.7297C57.9652 15.5993 58.2766 14.484 58.3563 14.332C58.5156 14.0423 59.0153 13.586 59.1602 13.615C59.2253 13.6295 59.4571 13.9264 59.6671 14.2813C60.0075 14.8389 60.0582 14.9765 60.0799 15.3603C60.1016 15.8238 60.1378 15.8745 60.5289 15.9614C60.6447 15.9831 60.8475 16.1135 60.9779 16.2438C61.1952 16.4611 61.2241 16.5335 61.2241 16.8956C61.2241 17.1274 61.2531 17.3012 61.2966 17.3012C61.34 17.3012 61.4921 17.2143 61.6369 17.1201C61.9846 16.8812 62.0497 16.8884 62.2235 17.1853C62.3322 17.3736 62.4046 17.4243 62.5204 17.3953C62.6001 17.3736 62.716 17.3953 62.7812 17.446C62.9188 17.5619 63.4692 18.7207 63.4692 18.9017C63.4692 19.0682 63.4329 19.09 62.3466 19.5897C61.0431 20.1907 61.0431 20.1908 60.9344 20.1256ZM77.7798 18.6048C77.504 18.5323 77.2511 18.4382 77.2073 18.3947C77.1636 18.3513 77.0767 18.0326 77.0045 17.685C76.9322 17.3302 76.8523 16.9463 76.8308 16.8232C76.7947 16.6566 76.8093 16.5625 76.9107 16.4684C77.0191 16.3597 77.1205 16.3453 77.5408 16.3815L78.0403 16.4249L77.9896 16.1932C77.8735 15.679 77.8735 15.6718 78.3515 15.6283C78.5905 15.5993 78.9885 15.4979 79.2352 15.3893C79.4811 15.2879 79.7277 15.201 79.7854 15.201C80.1334 15.201 80.4516 16.2004 80.2849 16.7653C80.1834 17.0984 79.2782 18.3006 78.9378 18.5685C78.6558 18.7785 78.4599 18.7858 77.7798 18.6048ZM80.6114 15.8311C80.4446 15.6935 80.1112 15.1286 80.1404 15.0127C80.1473 14.9548 80.5968 14.7013 81.1324 14.4406C82.1682 13.9409 82.5878 13.8468 82.7184 14.093C82.7983 14.245 82.617 15.3386 82.4871 15.469C82.4364 15.5197 82.0883 15.6283 81.7118 15.708C81.3353 15.7876 80.9587 15.8672 80.8788 15.889C80.792 15.9035 80.676 15.8818 80.6114 15.8311ZM48.0219 13.7961C47.9278 13.7237 47.8191 13.7091 47.6236 13.7599C47.4715 13.7888 47.2615 13.8178 47.1529 13.8178L46.9501 13.825L46.9573 13.3325C46.9646 13.0646 46.9284 12.5939 46.8777 12.2897C46.798 11.8334 46.798 11.7103 46.8777 11.6162C46.9284 11.5583 47.0081 11.5076 47.0515 11.5076C47.0877 11.5076 47.1819 11.4496 47.2543 11.3845C47.3847 11.2758 48.2464 11.0006 48.4854 11.0006C48.6085 11.0006 48.9851 11.5076 48.9851 11.6814C48.9851 11.7465 48.891 11.848 48.7823 11.9204C48.6737 11.9855 48.5651 12.0724 48.5361 12.1087C48.4492 12.239 48.5723 12.449 48.8185 12.6011L49.072 12.7605L49.6151 12.6228C50.0063 12.5287 50.1873 12.5142 50.2742 12.5649C50.4335 12.6663 50.6798 13.2674 50.6218 13.4195C50.5639 13.5788 49.7962 13.9119 49.6007 13.8685C49.5138 13.8468 49.3544 13.7453 49.2531 13.6512L49.0648 13.4774L48.862 13.6874C48.6447 13.9192 48.2537 13.9699 48.0219 13.7961ZM44.2271 12.4201C43.7853 12.1159 43.7419 11.9204 44.0678 11.7465L44.314 11.6234L44.0968 11.58C43.9737 11.5583 43.865 11.4859 43.8578 11.4207C43.8143 11.2252 44.1184 10.7109 44.3357 10.6168C44.4371 10.5661 44.5675 10.4792 44.6109 10.4213C44.6761 10.3343 44.7919 10.3633 45.4003 10.6023C46.1462 10.8993 46.4142 11.0803 46.3418 11.2614C46.32 11.3265 46.3056 11.5583 46.2983 11.7828C46.2983 12.0073 46.2766 12.2318 46.2404 12.2897C46.1897 12.3694 44.9513 12.6663 44.6761 12.6663C44.6254 12.6663 44.4226 12.5577 44.2271 12.4201ZM95.1383 5.18529C94.6604 4.67111 94.6097 4.56248 94.6097 4.07726C94.6097 3.53411 94.6534 3.39651 94.8347 3.39651C94.907 3.39651 95.1529 3.26616 95.3849 3.10683C95.8699 2.76646 96.0296 2.74473 96.1311 2.9982C96.3047 3.45445 96.1165 5.06218 95.8629 5.31565C95.6816 5.4967 95.3773 5.44601 95.1383 5.18529Z" fill="#007BFF"/>
<path d="M134.177 22.9177C134.177 23.7002 133.911 24.2893 133.379 24.685C132.847 25.0806 132.091 25.2785 131.111 25.2785H128.367V16.6729H130.959C131.32 16.6729 131.673 16.7036 132.021 16.7652C132.368 16.8224 132.678 16.9323 132.951 17.0949C133.227 17.2576 133.452 17.4861 133.623 17.7807C133.795 18.0709 133.88 18.4489 133.88 18.9149C133.88 19.3502 133.769 19.748 133.544 20.1085C133.324 20.469 132.99 20.7284 132.542 20.8866C133.091 21.0581 133.5 21.2977 133.769 21.6055C134.041 21.9131 134.177 22.3506 134.177 22.9177ZM132.528 19.093C132.528 18.8424 132.48 18.638 132.383 18.4797C132.291 18.3215 132.17 18.2006 132.021 18.117C131.871 18.0291 131.704 17.9719 131.52 17.9455C131.335 17.9192 131.148 17.906 130.959 17.906H129.732V20.28H130.959C131.148 20.28 131.335 20.2668 131.52 20.2404C131.704 20.214 131.871 20.159 132.021 20.0755C132.17 19.9876 132.291 19.8645 132.383 19.7063C132.48 19.548 132.528 19.3436 132.528 19.093ZM132.825 22.7792C132.825 22.3484 132.674 22.0297 132.37 21.823C132.071 21.6164 131.652 21.5131 131.111 21.5131H129.732V24.0519H131.111C131.652 24.0519 132.071 23.9486 132.37 23.7419C132.674 23.531 132.825 23.21 132.825 22.7792ZM141.332 24.4014C140.936 24.7971 140.519 25.0674 140.079 25.2126C139.644 25.3576 139.171 25.4301 138.661 25.4301C138.147 25.4301 137.679 25.3532 137.257 25.1994C136.839 25.0455 136.483 24.8301 136.188 24.5531C135.898 24.2717 135.674 23.9333 135.516 23.5376C135.362 23.1419 135.285 22.7001 135.285 22.2121C135.285 21.7461 135.362 21.3153 135.516 20.9196C135.674 20.5196 135.885 20.1789 136.149 19.8975C136.417 19.6117 136.731 19.3897 137.092 19.2314C137.453 19.0688 137.835 18.9875 138.239 18.9875C138.661 18.9875 139.028 19.0754 139.341 19.2512C139.653 19.4271 139.879 19.6843 140.019 20.0228V19.1325H141.239V21.9945H140.019C140.019 21.4537 139.87 21.0229 139.571 20.702C139.277 20.3767 138.892 20.214 138.417 20.214C138.229 20.214 138.028 20.2536 137.817 20.3327C137.61 20.4075 137.419 20.5262 137.243 20.6889C137.072 20.8515 136.929 21.0581 136.815 21.3087C136.7 21.5593 136.643 21.8604 136.643 22.2121C136.643 22.555 136.698 22.8518 136.809 23.1023C136.918 23.3485 137.061 23.553 137.236 23.7156C137.417 23.8739 137.628 23.9948 137.87 24.0783C138.116 24.1575 138.369 24.197 138.628 24.197C139.073 24.197 139.457 24.1288 139.783 23.9925C140.112 23.8519 140.395 23.6673 140.633 23.4387L141.332 24.4014ZM144.042 22.7264C144.108 23.1485 144.308 23.5002 144.642 23.7815C144.981 24.0585 145.433 24.197 146.001 24.197C146.445 24.197 146.83 24.1288 147.155 23.9925C147.485 23.8519 147.768 23.6673 148.006 23.4387L148.705 24.4014C148.309 24.7971 147.889 25.0674 147.445 25.2126C147.005 25.3576 146.524 25.4301 146.001 25.4301C145.526 25.4301 145.084 25.351 144.675 25.1928C144.266 25.0345 143.913 24.8147 143.614 24.5334C143.314 24.2476 143.08 23.909 142.908 23.5178C142.741 23.1265 142.657 22.6913 142.657 22.2121C142.657 21.7461 142.734 21.3174 142.888 20.9262C143.046 20.5305 143.267 20.1898 143.548 19.9041C143.833 19.6139 144.174 19.3897 144.57 19.2314C144.966 19.0688 145.403 18.9875 145.882 18.9875C146.379 18.9875 146.83 19.0732 147.234 19.2446C147.638 19.4117 147.984 19.6557 148.269 19.9766C148.559 20.2975 148.786 20.691 148.948 21.157C149.111 21.6187 149.192 22.1418 149.192 22.7264H144.042ZM147.649 21.5263C147.579 21.1306 147.374 20.8141 147.036 20.5767C146.698 20.3349 146.313 20.214 145.882 20.214C145.451 20.214 145.064 20.3349 144.721 20.5767C144.379 20.8141 144.172 21.1306 144.102 21.5263H147.649ZM150.485 19.1325H151.85V19.6865C152.109 19.4535 152.371 19.2798 152.635 19.1655C152.903 19.0468 153.208 18.9875 153.552 18.9875C153.947 18.9875 154.314 19.0688 154.653 19.2314C154.991 19.3897 155.281 19.6117 155.523 19.8975C155.765 20.1789 155.956 20.5196 156.097 20.9196C156.237 21.3153 156.307 21.7461 156.307 22.2121C156.307 22.6825 156.237 23.1155 156.097 23.5112C155.956 23.9069 155.765 24.2476 155.523 24.5334C155.281 24.8147 154.991 25.0345 154.653 25.1928C154.314 25.351 153.947 25.4301 153.552 25.4301C153.208 25.4301 152.903 25.3687 152.635 25.2455C152.371 25.1225 152.109 24.9443 151.85 24.7114V27.7382H150.485V19.1325ZM151.85 23.6299C152.013 23.8101 152.219 23.9508 152.47 24.0519C152.725 24.1486 152.969 24.197 153.201 24.197C153.716 24.197 154.134 24.0145 154.455 23.6497C154.78 23.2848 154.942 22.8056 154.942 22.2121C154.942 21.6187 154.78 21.1372 154.455 20.768C154.134 20.3986 153.716 20.214 153.201 20.214C152.969 20.214 152.725 20.2624 152.47 20.3591C152.219 20.4514 152.013 20.5877 151.85 20.768V23.6299ZM163.839 22.2121C163.839 22.6913 163.762 23.1265 163.607 23.5178C163.458 23.909 163.241 24.2476 162.955 24.5334C162.674 24.8147 162.335 25.0345 161.939 25.1928C161.543 25.351 161.102 25.4301 160.614 25.4301C160.135 25.4301 159.697 25.351 159.302 25.1928C158.906 25.0345 158.565 24.8147 158.28 24.5334C157.998 24.2476 157.78 23.909 157.627 23.5178C157.477 23.1265 157.402 22.6913 157.402 22.2121C157.402 21.7461 157.477 21.3153 157.627 20.9196C157.78 20.5196 157.998 20.1767 158.28 19.8909C158.565 19.6007 158.906 19.3787 159.302 19.2248C159.697 19.0666 160.135 18.9875 160.614 18.9875C161.102 18.9875 161.543 19.0666 161.939 19.2248C162.335 19.3787 162.674 19.6007 162.955 19.8909C163.241 20.1767 163.458 20.5196 163.607 20.9196C163.762 21.3153 163.839 21.7461 163.839 22.2121ZM162.48 22.2121C162.48 21.9352 162.436 21.6736 162.348 21.4273C162.265 21.1768 162.142 20.9636 161.979 20.7877C161.816 20.6119 161.618 20.4734 161.385 20.3723C161.157 20.2668 160.899 20.214 160.614 20.214C160.324 20.214 160.064 20.2668 159.836 20.3723C159.607 20.4734 159.414 20.6119 159.255 20.7877C159.097 20.9636 158.974 21.1768 158.886 21.4273C158.803 21.6736 158.76 21.9352 158.76 22.2121C158.76 22.5022 158.803 22.766 158.886 23.0034C158.974 23.2409 159.097 23.4496 159.255 23.6299C159.414 23.8101 159.607 23.9508 159.836 24.0519C160.064 24.1486 160.324 24.197 160.614 24.197C160.899 24.197 161.157 24.1486 161.385 24.0519C161.618 23.9508 161.816 23.8101 161.979 23.6299C162.142 23.4496 162.265 23.2409 162.348 23.0034C162.436 22.766 162.48 22.5022 162.48 22.2121ZM170.822 24.4014C170.426 24.7971 170.008 25.0674 169.569 25.2126C169.134 25.3576 168.661 25.4301 168.151 25.4301C167.637 25.4301 167.168 25.3532 166.747 25.1994C166.329 25.0455 165.973 24.8301 165.678 24.5531C165.388 24.2717 165.164 23.9333 165.006 23.5376C164.852 23.1419 164.775 22.7001 164.775 22.2121C164.775 21.7461 164.852 21.3153 165.006 20.9196C165.164 20.5196 165.375 20.1789 165.639 19.8975C165.907 19.6117 166.222 19.3897 166.581 19.2314C166.942 19.0688 167.325 18.9875 167.729 18.9875C168.151 18.9875 168.518 19.0754 168.83 19.2512C169.143 19.4271 169.369 19.6843 169.51 20.0228V19.1325H170.73V21.9945H169.51C169.51 21.4537 169.36 21.0229 169.061 20.702C168.767 20.3767 168.382 20.214 167.907 20.214C167.718 20.214 167.518 20.2536 167.307 20.3327C167.1 20.4075 166.909 20.5262 166.734 20.6889C166.562 20.8515 166.419 21.0581 166.305 21.3087C166.19 21.5593 166.133 21.8604 166.133 22.2121C166.133 22.555 166.188 22.8518 166.298 23.1023C166.408 23.3485 166.551 23.553 166.727 23.7156C166.907 23.8739 167.118 23.9948 167.36 24.0783C167.606 24.1575 167.859 24.197 168.118 24.197C168.562 24.197 168.947 24.1288 169.272 23.9925C169.602 23.8519 169.885 23.6673 170.123 23.4387L170.822 24.4014ZM178.194 24.4014C177.799 24.7971 177.381 25.0674 176.942 25.2126C176.506 25.3576 176.034 25.4301 175.524 25.4301C175.01 25.4301 174.541 25.3532 174.119 25.1994C173.701 25.0455 173.345 24.8301 173.051 24.5531C172.761 24.2717 172.536 23.9333 172.378 23.5376C172.225 23.1419 172.147 22.7001 172.147 22.2121C172.147 21.7461 172.225 21.3153 172.378 20.9196C172.536 20.5196 172.748 20.1789 173.011 19.8975C173.279 19.6117 173.594 19.3897 173.954 19.2314C174.315 19.0688 174.697 18.9875 175.101 18.9875C175.524 18.9875 175.89 19.0754 176.203 19.2512C176.515 19.4271 176.741 19.6843 176.882 20.0228V19.1325H178.102V21.9945H176.882C176.882 21.4537 176.732 21.0229 176.434 20.702C176.139 20.3767 175.754 20.214 175.28 20.214C175.091 20.214 174.891 20.2536 174.68 20.3327C174.473 20.4075 174.282 20.5262 174.106 20.6889C173.934 20.8515 173.792 21.0581 173.677 21.3087C173.563 21.5593 173.506 21.8604 173.506 22.2121C173.506 22.555 173.56 22.8518 173.671 23.1023C173.781 23.3485 173.923 23.553 174.1 23.7156C174.279 23.8739 174.491 23.9948 174.732 24.0783C174.978 24.1575 175.231 24.197 175.491 24.197C175.935 24.197 176.319 24.1288 176.645 23.9925C176.974 23.8519 177.258 23.6673 177.495 23.4387L178.194 24.4014ZM179.975 19.1325H181.34V23.3595L183.76 19.1325H185.475V25.2785H184.11V20.8075L181.558 25.2785H179.975V19.1325ZM187.348 19.1325H188.712V23.3595L191.132 19.1325H192.847V25.2785H191.482V20.8075L188.93 25.2785H187.348V19.1325ZM192.267 17.5828C191.669 18.1764 190.948 18.4731 190.103 18.4731C189.255 18.4731 188.534 18.1764 187.941 17.5828L188.738 16.7982C189.152 17.2114 189.607 17.418 190.103 17.418C190.601 17.418 191.056 17.2114 191.469 16.7982L192.267 17.5828ZM200.312 24.4014C199.916 24.7971 199.499 25.0674 199.059 25.2126C198.624 25.3576 198.151 25.4301 197.642 25.4301C197.127 25.4301 196.659 25.3532 196.237 25.1994C195.819 25.0455 195.463 24.8301 195.169 24.5531C194.878 24.2717 194.654 23.9333 194.496 23.5376C194.342 23.1419 194.265 22.7001 194.265 22.2121C194.265 21.7461 194.342 21.3153 194.496 20.9196C194.654 20.5196 194.865 20.1789 195.129 19.8975C195.396 19.6117 195.711 19.3897 196.072 19.2314C196.432 19.0688 196.815 18.9875 197.219 18.9875C197.642 18.9875 198.008 19.0754 198.32 19.2512C198.632 19.4271 198.859 19.6843 199 20.0228V19.1325H200.22V21.9945H199C199 21.4537 198.85 21.0229 198.551 20.702C198.256 20.3767 197.872 20.214 197.397 20.214C197.208 20.214 197.008 20.2536 196.798 20.3327C196.59 20.4075 196.4 20.5262 196.223 20.6889C196.051 20.8515 195.909 21.0581 195.794 21.3087C195.681 21.5593 195.624 21.8604 195.624 22.2121C195.624 22.555 195.678 22.8518 195.788 23.1023C195.898 23.3485 196.041 23.553 196.217 23.7156C196.397 23.8739 196.608 23.9948 196.85 24.0783C197.096 24.1575 197.348 24.197 197.608 24.197C198.052 24.197 198.437 24.1288 198.762 23.9925C199.092 23.8519 199.376 23.6673 199.613 23.4387L200.312 24.4014ZM207.902 25.2785H206.134L204.077 22.7924L203.458 23.4254V25.2785H202.093V19.1325H203.458V21.7373L205.917 19.1325H207.79L204.954 21.955L207.902 25.2785ZM209.115 23.5112C209.115 23.1508 209.212 22.8364 209.406 22.5682C209.599 22.2956 209.852 22.0692 210.164 21.889C210.48 21.7087 210.841 21.5747 211.245 21.4867C211.654 21.3944 212.069 21.3482 212.492 21.3482C212.724 21.3482 212.924 21.3527 213.092 21.3615C213.259 21.3702 213.428 21.3834 213.6 21.401V21.157C213.6 20.8361 213.474 20.5965 213.224 20.4382C212.978 20.28 212.652 20.2008 212.248 20.2008C211.878 20.2008 211.502 20.2536 211.12 20.3591C210.738 20.4602 210.375 20.6097 210.032 20.8075L209.478 19.7392C209.883 19.5062 210.315 19.3238 210.777 19.1919C211.243 19.0556 211.734 18.9875 212.248 18.9875C212.581 18.9875 212.909 19.0248 213.23 19.0996C213.555 19.1743 213.846 19.2974 214.101 19.4688C214.36 19.6403 214.567 19.8645 214.72 20.1415C214.874 20.414 214.951 20.7526 214.951 21.157V25.2785H213.6V24.375C213.384 24.7092 213.065 24.9685 212.643 25.1532C212.226 25.3378 211.775 25.4301 211.292 25.4301C210.992 25.4301 210.709 25.3884 210.441 25.3049C210.177 25.2257 209.948 25.1048 209.755 24.9421C209.561 24.7795 209.406 24.5795 209.287 24.342C209.172 24.1003 209.115 23.8234 209.115 23.5112ZM211.641 24.2102C211.909 24.2102 212.16 24.1773 212.393 24.1113C212.63 24.0409 212.839 23.9464 213.02 23.8277C213.2 23.7046 213.34 23.5574 213.441 23.3859C213.547 23.2145 213.6 23.0254 213.6 22.8188V22.588C213.384 22.5528 213.182 22.533 212.993 22.5286C212.804 22.5243 212.637 22.522 212.492 22.522C211.823 22.522 211.318 22.6099 210.975 22.7858C210.636 22.9617 210.467 23.1792 210.467 23.4387C210.467 23.953 210.858 24.2102 211.641 24.2102ZM218.717 22.9045C218.022 22.8957 217.482 22.7353 217.095 22.4231C216.707 22.111 216.515 21.645 216.515 21.0251C216.515 20.4052 216.712 19.9348 217.107 19.6139C217.504 19.293 218.058 19.1325 218.77 19.1325H222.337V25.2785H220.972V22.9045H220.418L218.255 25.2785H216.435L218.717 22.9045ZM217.88 21.012C217.88 21.2362 217.958 21.4032 218.117 21.5131C218.275 21.6187 218.488 21.6713 218.756 21.6713H220.972V20.3657H218.756C218.488 20.3657 218.275 20.4206 218.117 20.5305C217.958 20.6361 217.88 20.7965 217.88 21.012Z" fill="#007BFF"/>
<path d="M134.176 33.3167H132.956V31.4108H131.796V37.5568H133.161V38.7834H129.072V37.5568H130.431V31.4108H129.257V33.3167H128.043V30.1777H134.176V33.3167ZM141.509 32.6374L138.858 39.9836C138.66 40.5155 138.373 40.8826 137.994 41.0848C137.616 41.287 137.166 41.3881 136.642 41.3881C136.462 41.3881 136.269 41.3706 136.062 41.3354C135.856 41.3002 135.64 41.2409 135.416 41.1574L135.699 39.9044C135.888 39.9747 136.062 40.0231 136.22 40.0495C136.379 40.0803 136.519 40.0956 136.642 40.0956C137.051 40.0956 137.33 39.911 137.48 39.5417L137.724 38.9482L135.376 32.6374H136.794L138.482 37.2864L140.045 32.6374H141.509ZM143.111 32.6374H144.476V33.1914C144.736 32.9584 144.997 32.7847 145.261 32.6704C145.529 32.5517 145.835 32.4924 146.178 32.4924C146.573 32.4924 146.94 32.5736 147.279 32.7363C147.618 32.8947 147.908 33.1166 148.15 33.4023C148.392 33.6837 148.583 34.0244 148.723 34.4245C148.864 34.8202 148.934 35.251 148.934 35.717C148.934 36.1873 148.864 36.6204 148.723 37.0161C148.583 37.4118 148.392 37.7524 148.15 38.0382C147.908 38.3196 147.618 38.5394 147.279 38.6977C146.94 38.8559 146.573 38.935 146.178 38.935C145.835 38.935 145.529 38.8735 145.261 38.7504C144.997 38.6273 144.736 38.4492 144.476 38.2162V41.243H143.111V32.6374ZM144.476 37.1348C144.639 37.315 144.846 37.4557 145.097 37.5568C145.352 37.6535 145.595 37.7019 145.828 37.7019C146.343 37.7019 146.76 37.5194 147.081 37.1546C147.406 36.7896 147.569 36.3105 147.569 35.717C147.569 35.1235 147.406 34.6421 147.081 34.2728C146.76 33.9035 146.343 33.7189 145.828 33.7189C145.595 33.7189 145.352 33.7673 145.097 33.864C144.846 33.9563 144.639 34.0926 144.476 34.2728V37.1348ZM150.484 32.6374H151.849V36.8644L154.269 32.6374H155.983V38.7834H154.619V34.3124L152.067 38.7834H150.484V32.6374ZM163.449 37.9063C163.053 38.3019 162.635 38.5723 162.195 38.7174C161.76 38.8625 161.287 38.935 160.777 38.935C160.263 38.935 159.795 38.8581 159.373 38.7043C158.955 38.5504 158.6 38.3349 158.305 38.058C158.015 37.7766 157.79 37.4382 157.632 37.0425C157.478 36.6467 157.401 36.205 157.401 35.717C157.401 35.251 157.478 34.8202 157.632 34.4245C157.79 34.0244 158.001 33.6837 158.265 33.4023C158.534 33.1166 158.848 32.8947 159.208 32.7363C159.569 32.5736 159.951 32.4924 160.356 32.4924C160.777 32.4924 161.145 32.5803 161.457 32.7561C161.769 32.932 161.995 33.1891 162.136 33.5277V32.6374H163.356V35.4994H162.136C162.136 34.9586 161.987 34.5278 161.687 34.2069C161.393 33.8815 161.009 33.7189 160.534 33.7189C160.345 33.7189 160.145 33.7584 159.933 33.8376C159.727 33.9124 159.536 34.031 159.36 34.1937C159.189 34.3564 159.046 34.563 158.932 34.8136C158.817 35.0641 158.76 35.3653 158.76 35.717C158.76 36.0599 158.815 36.3566 158.925 36.6072C159.034 36.8534 159.178 37.0579 159.353 37.2205C159.533 37.3788 159.744 37.4997 159.986 37.5832C160.233 37.6623 160.486 37.7019 160.745 37.7019C161.189 37.7019 161.574 37.6337 161.899 37.4974C162.229 37.3567 162.512 37.1722 162.75 36.9435L163.449 37.9063ZM171.038 35.7698H169.818V33.8706H168.658V37.5568H170.023V38.7834H165.934V37.5568H167.293V33.8706H166.119V35.7698H164.906V32.6374H171.038V35.7698ZM172.601 32.6374H173.966V36.8644L176.387 32.6374H178.101V38.7834H176.736V34.3124L174.184 38.7834H172.601V32.6374ZM179.974 32.6374H181.339V35.2026C181.339 35.6818 181.429 36.0137 181.609 36.1983C181.789 36.383 182.051 36.4753 182.394 36.4753C182.895 36.4753 183.306 36.2709 183.627 35.8621C183.949 35.4488 184.108 34.8839 184.108 34.1673V32.6374H185.473V38.7834H184.108V36.0137C183.972 36.5457 183.719 36.9611 183.35 37.2601C182.981 37.5546 182.526 37.7019 181.985 37.7019C181.357 37.7019 180.864 37.4974 180.508 37.0886C180.152 36.6797 179.974 36.0511 179.974 35.2026V32.6374ZM188.276 36.2313C188.342 36.6533 188.542 37.0051 188.876 37.2864C189.214 37.5634 189.667 37.7019 190.235 37.7019C190.679 37.7019 191.063 37.6337 191.389 37.4974C191.718 37.3567 192.002 37.1722 192.239 36.9435L192.938 37.9063C192.543 38.3019 192.123 38.5723 191.679 38.7174C191.239 38.8625 190.757 38.935 190.235 38.935C189.76 38.935 189.318 38.8559 188.909 38.6977C188.501 38.5394 188.147 38.3196 187.847 38.0382C187.549 37.7524 187.313 37.4139 187.141 37.0227C186.975 36.6314 186.891 36.1962 186.891 35.717C186.891 35.251 186.968 34.8223 187.122 34.4311C187.28 34.0354 187.5 33.6947 187.781 33.4089C188.067 33.1188 188.408 32.8947 188.804 32.7363C189.2 32.5736 189.637 32.4924 190.116 32.4924C190.613 32.4924 191.063 32.5781 191.468 32.7495C191.872 32.9166 192.218 33.1606 192.503 33.4815C192.793 33.8024 193.02 34.1959 193.183 34.6619C193.345 35.1235 193.426 35.6467 193.426 36.2313H188.276ZM191.883 35.0311C191.813 34.6355 191.608 34.319 191.27 34.0816C190.932 33.8398 190.547 33.7189 190.116 33.7189C189.685 33.7189 189.298 33.8398 188.955 34.0816C188.613 34.319 188.406 34.6355 188.336 35.0311H191.883ZM200.311 37.9063C199.916 38.3019 199.497 38.5723 199.058 38.7174C198.623 38.8625 198.15 38.935 197.64 38.935C197.126 38.935 196.657 38.8581 196.236 38.7043C195.818 38.5504 195.462 38.3349 195.167 38.058C194.878 37.7766 194.653 37.4382 194.495 37.0425C194.341 36.6467 194.264 36.205 194.264 35.717C194.264 35.251 194.341 34.8202 194.495 34.4245C194.653 34.0244 194.864 33.6837 195.128 33.4023C195.396 33.1166 195.71 32.8947 196.071 32.7363C196.431 32.5736 196.814 32.4924 197.218 32.4924C197.64 32.4924 198.007 32.5803 198.319 32.7561C198.631 32.932 198.858 33.1891 198.999 33.5277V32.6374H200.219V35.4994H198.999C198.999 34.9586 198.849 34.5278 198.551 34.2069C198.255 33.8815 197.871 33.7189 197.396 33.7189C197.207 33.7189 197.007 33.7584 196.796 33.8376C196.589 33.9124 196.398 34.031 196.223 34.1937C196.05 34.3564 195.909 34.563 195.793 34.8136C195.679 35.0641 195.622 35.3653 195.622 35.717C195.622 36.0599 195.677 36.3566 195.787 36.6072C195.897 36.8534 196.04 37.0579 196.216 37.2205C196.396 37.3788 196.607 37.4997 196.849 37.5832C197.095 37.6623 197.348 37.7019 197.607 37.7019C198.051 37.7019 198.436 37.6337 198.761 37.4974C199.091 37.3567 199.374 37.1722 199.612 36.9435L200.311 37.9063ZM207.901 38.7834H206.133L204.076 36.2972L203.457 36.9303V38.7834H202.091V32.6374H203.457V35.2422L205.916 32.6374H207.789L204.954 35.4598L207.901 38.7834ZM209.114 37.0161C209.114 36.6556 209.211 36.3413 209.405 36.0731C209.598 35.8005 209.851 35.5741 210.163 35.3939C210.479 35.2136 210.84 35.0796 211.244 34.9916C211.653 34.8993 212.068 34.8531 212.49 34.8531C212.723 34.8531 212.924 34.8575 213.091 34.8664C213.258 34.8751 213.427 34.8883 213.599 34.9059V34.6619C213.599 34.341 213.473 34.1014 213.223 33.9431C212.977 33.7848 212.651 33.7057 212.247 33.7057C211.877 33.7057 211.501 33.7584 211.119 33.864C210.736 33.9651 210.374 34.1146 210.031 34.3124L209.477 33.2441C209.882 33.0111 210.315 32.8287 210.776 32.6968C211.242 32.5605 211.733 32.4924 212.247 32.4924C212.581 32.4924 212.908 32.5297 213.229 32.6044C213.555 32.6792 213.845 32.8023 214.1 32.9738C214.359 33.1452 214.566 33.3694 214.719 33.6464C214.873 33.9189 214.95 34.2575 214.95 34.6619V38.7834H213.599V37.8799C213.383 38.2141 213.064 38.4734 212.643 38.6581C212.225 38.8427 211.774 38.935 211.291 38.935C210.991 38.935 210.708 38.8933 210.44 38.8098C210.176 38.7306 209.948 38.6097 209.754 38.447C209.56 38.2844 209.405 38.0844 209.286 37.8469C209.171 37.6052 209.114 37.3283 209.114 37.0161ZM211.64 37.7151C211.908 37.7151 212.158 37.6821 212.392 37.6162C212.629 37.5458 212.839 37.4513 213.018 37.3326C213.198 37.2095 213.339 37.0623 213.44 36.8908C213.546 36.7193 213.599 36.5303 213.599 36.3236V36.0929C213.383 36.0576 213.181 36.0379 212.992 36.0335C212.802 36.0292 212.636 36.0269 212.49 36.0269C211.822 36.0269 211.316 36.1148 210.974 36.2907C210.635 36.4665 210.466 36.6841 210.466 36.9435C210.466 37.4579 210.857 37.7151 211.64 37.7151ZM218.716 36.4094C218.021 36.4006 217.481 36.2401 217.094 35.928C216.707 35.6159 216.513 35.1499 216.513 34.53C216.513 33.9101 216.711 33.4397 217.106 33.1188C217.503 32.7979 218.056 32.6374 218.768 32.6374H222.336V38.7834H220.971V36.4094H220.417L218.254 38.7834H216.434L218.716 36.4094ZM217.879 34.5169C217.879 34.741 217.957 34.9081 218.115 35.018C218.274 35.1235 218.487 35.1762 218.755 35.1762H220.971V33.8706H218.755C218.487 33.8706 218.274 33.9255 218.115 34.0354C217.957 34.141 217.879 34.3014 217.879 34.5169Z" fill="#007BFF"/>
<path d="M127.824 47.9837C127.824 47.4078 127.886 46.8516 128.009 46.3153C128.132 45.779 128.323 45.3064 128.583 44.8976C128.842 44.4887 129.18 44.1612 129.598 43.915C130.02 43.6644 130.528 43.5391 131.121 43.5391C131.715 43.5391 132.22 43.6644 132.638 43.915C133.06 44.1612 133.403 44.4887 133.667 44.8976C133.931 45.3064 134.122 45.779 134.24 46.3153C134.359 46.8516 134.418 47.4078 134.418 47.9837C134.418 48.5596 134.359 49.1157 134.24 49.652C134.122 50.184 133.933 50.6588 133.674 51.0765C133.414 51.4897 133.073 51.8216 132.651 52.0722C132.234 52.3184 131.724 52.4415 131.121 52.4415C130.519 52.4415 130.007 52.3184 129.585 52.0722C129.167 51.8216 128.827 51.4897 128.563 51.0765C128.304 50.6588 128.117 50.184 128.002 49.652C127.883 49.1157 127.824 48.5596 127.824 47.9837ZM129.189 47.9837C129.189 48.3706 129.218 48.7575 129.275 49.1443C129.337 49.5312 129.437 49.8784 129.578 50.1862C129.724 50.4896 129.919 50.7358 130.165 50.9247C130.415 51.1138 130.734 51.2083 131.121 51.2083C131.508 51.2083 131.825 51.1138 132.071 50.9247C132.322 50.7358 132.517 50.4896 132.658 50.1862C132.803 49.8784 132.904 49.5312 132.962 49.1443C133.023 48.7575 133.053 48.3706 133.053 47.9837C133.053 47.5968 133.023 47.2122 132.962 46.8297C132.904 46.4472 132.803 46.1021 132.658 45.7943C132.517 45.4867 132.32 45.2382 132.065 45.0492C131.814 44.8602 131.499 44.7656 131.121 44.7656C130.493 44.7656 130.013 45.0492 129.684 45.6163C129.354 46.1834 129.189 46.9726 129.189 47.9837ZM141.237 46.1439V52.2898H139.872V47.377H137.551V50.4698C137.551 50.8258 137.498 51.1314 137.392 51.3864C137.287 51.6369 137.146 51.8392 136.971 51.9931C136.799 52.1469 136.595 52.2591 136.357 52.3294C136.125 52.4041 135.874 52.4415 135.606 52.4415C135.236 52.4415 134.966 52.3865 134.794 52.2766L134.966 51.1028C135.032 51.138 135.105 51.1643 135.183 51.1819C135.258 51.1996 135.357 51.2083 135.481 51.2083C135.951 51.2083 136.186 50.9621 136.186 50.4698V46.1439H141.237ZM143.11 46.1439H144.475V50.3708L146.895 46.1439H148.61V52.2898H147.245V47.8189L144.692 52.2898H143.11V46.1439ZM155.982 52.2898H154.617V48.1288L153.753 50.3445H152.698L151.848 48.1288V52.2898H150.483V46.1439H152.105L153.225 48.9266L154.347 46.1439H155.982V52.2898ZM163.355 52.2898H161.99V47.377H159.22V52.2898H157.855V46.1439H163.355V52.2898ZM165.227 46.1439H166.592V50.3708L169.013 46.1439H170.727V52.2898H169.362V47.8189L166.81 52.2898H165.227V46.1439ZM172.251 50.5225C172.251 50.162 172.347 49.8477 172.54 49.5795C172.734 49.307 172.987 49.0806 173.299 48.9003C173.616 48.72 173.976 48.586 174.381 48.4981C174.789 48.4057 175.204 48.3595 175.627 48.3595C175.86 48.3595 176.06 48.3639 176.227 48.3728C176.394 48.3816 176.563 48.3947 176.735 48.4123V48.1684C176.735 47.8474 176.609 47.6078 176.359 47.4495C176.112 47.2913 175.787 47.2122 175.383 47.2122C175.013 47.2122 174.638 47.2649 174.255 47.3704C173.873 47.4715 173.51 47.621 173.167 47.8189L172.613 46.7505C173.017 46.5175 173.45 46.3351 173.912 46.2033C174.378 46.067 174.868 45.9988 175.383 45.9988C175.717 45.9988 176.044 46.0362 176.365 46.1109C176.69 46.1856 176.981 46.3087 177.236 46.4802C177.495 46.6517 177.702 46.8759 177.855 47.1528C178.01 47.4254 178.087 47.7638 178.087 48.1684V52.2898H176.735V51.3864C176.519 51.7205 176.201 51.9799 175.778 52.1645C175.361 52.3492 174.91 52.4415 174.426 52.4415C174.128 52.4415 173.844 52.3997 173.576 52.3162C173.312 52.237 173.083 52.1162 172.89 51.9535C172.697 51.7908 172.54 51.5908 172.422 51.3534C172.308 51.1116 172.251 50.8347 172.251 50.5225ZM174.776 51.2215C175.044 51.2215 175.295 51.1886 175.527 51.1226C175.765 51.0523 175.974 50.9577 176.154 50.8391C176.335 50.7159 176.475 50.5687 176.576 50.3972C176.682 50.2257 176.735 50.0368 176.735 49.8301V49.5993C176.519 49.5641 176.317 49.5444 176.128 49.54C175.939 49.5356 175.772 49.5334 175.627 49.5334C174.958 49.5334 174.453 49.6213 174.11 49.7972C173.771 49.973 173.602 50.1906 173.602 50.45C173.602 50.9643 173.994 51.2215 174.776 51.2215ZM179.649 51.0633C179.9 50.927 180.104 50.7709 180.263 50.595C180.421 50.4192 180.544 50.1972 180.632 49.929C180.724 49.6565 180.788 49.3268 180.823 48.9399C180.858 48.553 180.876 48.0892 180.876 47.5485V46.1439H184.793V51.0633H185.795V54.3934H184.562V52.2898H180.876V54.3934H179.649V51.0633ZM182.241 47.8189C182.241 48.0694 182.232 48.3529 182.215 48.6695C182.197 48.986 182.153 49.2982 182.083 49.6059C182.017 49.9092 181.913 50.1928 181.773 50.4566C181.637 50.7159 181.441 50.9182 181.186 51.0633H183.428V47.2913H182.241V47.8189ZM186.996 50.5225C186.996 50.162 187.092 49.8477 187.285 49.5795C187.479 49.307 187.731 49.0806 188.044 48.9003C188.36 48.72 188.721 48.586 189.126 48.4981C189.534 48.4057 189.95 48.3595 190.372 48.3595C190.605 48.3595 190.805 48.3639 190.971 48.3728C191.139 48.3816 191.308 48.3947 191.479 48.4123V48.1684C191.479 47.8474 191.354 47.6078 191.103 47.4495C190.857 47.2913 190.532 47.2122 190.127 47.2122C189.758 47.2122 189.383 47.2649 189 47.3704C188.617 47.4715 188.255 47.621 187.912 47.8189L187.358 46.7505C187.763 46.5175 188.195 46.3351 188.657 46.2033C189.124 46.067 189.613 45.9988 190.127 45.9988C190.462 45.9988 190.789 46.0362 191.11 46.1109C191.435 46.1856 191.726 46.3087 191.981 46.4802C192.24 46.6517 192.447 46.8759 192.601 47.1528C192.755 47.4254 192.832 47.7638 192.832 48.1684V52.2898H191.479V51.3864C191.265 51.7205 190.945 51.9799 190.523 52.1645C190.106 52.3492 189.655 52.4415 189.171 52.4415C188.873 52.4415 188.589 52.3997 188.321 52.3162C188.057 52.237 187.829 52.1162 187.635 51.9535C187.442 51.7908 187.285 51.5908 187.167 51.3534C187.053 51.1116 186.996 50.8347 186.996 50.5225ZM189.521 51.2215C189.789 51.2215 190.04 51.1886 190.273 51.1226C190.51 51.0523 190.719 50.9577 190.899 50.8391C191.079 50.7159 191.22 50.5687 191.322 50.3972C191.427 50.2257 191.479 50.0368 191.479 49.8301V49.5993C191.265 49.5641 191.062 49.5444 190.873 49.54C190.684 49.5356 190.516 49.5334 190.372 49.5334C189.704 49.5334 189.198 49.6213 188.855 49.7972C188.516 49.973 188.348 50.1906 188.348 50.45C188.348 50.9643 188.739 51.2215 189.521 51.2215Z" fill="#007BFF"/>
<path d="M122.269 4.16846H121.574V65.9971H122.269V4.16846Z" fill="#007BFF"/>
</g>
<defs>
<clipPath id="clip0_630_4230">
<rect width="223" height="69.4704" fill="white"/>
</clipPath>
</defs>
</svg>
